<!-- Generated by IcoMoon.io -->
<svg version="1.1" xmlns="http://www.w3.org/2000/svg" width="1024" height="1024" viewBox="0 0 1024 1024">
<title></title>
<g id="icomoon-ignore">
</g>
<path fill="#fff" d="M515.965 18.674c272.881 0 494.091 221.214 494.091 494.091 0 272.881-221.21 494.096-494.091 494.096s-494.091-221.214-494.091-494.096c0-272.877 221.21-494.091 494.091-494.091z"></path>
<path fill="#490094" opacity="0.199997" d="M515.965 843.809l96.961-96.961h137.12v-137.12l96.961-96.961-96.961-96.961v-137.12h-137.12l-96.961-96.961-96.961 96.961h-137.12v137.12l-96.961 96.961 96.961 96.961v137.129h137.12zM501.73 762.647l-63.122-63.122h-109.401v-109.401l-77.356-77.356 77.356-77.356v-109.401h109.401l77.356-77.356 77.356 77.356h109.401v109.401l64.934 64.934c6.858 6.862 6.858 17.983 0 24.845l-64.934 64.934v109.401h-109.401l-48.829 63.122c-7.861 7.861-34.901 7.861-42.762 0z"></path>
<path fill="#490094" d="M515.965 131.754c13.489 0 24.423-10.935 24.423-24.423s-10.935-24.423-24.423-24.423c-13.489 0-24.423 10.935-24.423 24.423s10.935 24.423 24.423 24.423z"></path>
<path fill="#490094" d="M313.246 186.073c13.489 0 24.423-10.935 24.423-24.423s-10.935-24.423-24.423-24.423c-13.489 0-24.423 10.935-24.423 24.423s10.935 24.423 24.423 24.423z"></path>
<path fill="#490094" d="M164.846 334.473c13.489 0 24.423-10.935 24.423-24.423s-10.935-24.423-24.423-24.423c-13.489 0-24.423 10.935-24.423 24.423s10.935 24.423 24.423 24.423z"></path>
<path fill="#490094" d="M110.527 537.191c13.489 0 24.423-10.935 24.423-24.423s-10.935-24.423-24.423-24.423c-13.489 0-24.423 10.935-24.423 24.423s10.935 24.423 24.423 24.423z"></path>
<path fill="#490094" d="M164.846 739.91c13.489 0 24.423-10.935 24.423-24.423s-10.935-24.423-24.423-24.423c-13.489 0-24.423 10.935-24.423 24.423s10.935 24.423 24.423 24.423z"></path>
<path fill="#490094" d="M313.246 888.309c13.489 0 24.423-10.935 24.423-24.423s-10.935-24.423-24.423-24.423c-13.489 0-24.423 10.935-24.423 24.423s10.935 24.423 24.423 24.423z"></path>
<path fill="#4e2d80" d="M515.965 942.628c13.489 0 24.423-10.935 24.423-24.423s-10.935-24.423-24.423-24.423c-13.489 0-24.423 10.935-24.423 24.423s10.935 24.423 24.423 24.423z"></path>
<path fill="#490094" d="M718.683 888.309c13.489 0 24.423-10.935 24.423-24.423s-10.935-24.423-24.423-24.423c-13.489 0-24.423 10.935-24.423 24.423s10.935 24.423 24.423 24.423z"></path>
<path fill="#490094" d="M867.082 739.91c13.489 0 24.423-10.935 24.423-24.423s-10.935-24.423-24.423-24.423c-13.489 0-24.423 10.935-24.423 24.423s10.935 24.423 24.423 24.423z"></path>
<path fill="#4e2d80" d="M921.401 537.191c13.489 0 24.423-10.935 24.423-24.423s-10.935-24.423-24.423-24.423c-13.489 0-24.423 10.935-24.423 24.423s10.935 24.423 24.423 24.423z"></path>
<path fill="#490094" d="M867.082 334.473c13.489 0 24.423-10.935 24.423-24.423s-10.935-24.423-24.423-24.423c-13.489 0-24.423 10.935-24.423 24.423s10.935 24.423 24.423 24.423z"></path>
<path fill="#490094" d="M718.683 186.073c13.489 0 24.423-10.935 24.423-24.423s-10.935-24.423-24.423-24.423c-13.489 0-24.423 10.935-24.423 24.423s10.935 24.423 24.423 24.423z"></path>
<path fill="#490094" d="M886.040 452.488c33.018 0 59.786 26.768 59.786 59.786s-26.768 59.786-59.786 59.786c-33.018 0-59.786-26.768-59.786-59.786s26.768-59.786 59.786-59.786z"></path>
<path fill="#490094" d="M756.094 463.358h-230.248c-27.288 0-49.406 22.123-49.406 49.411v410.095c0 21.83 17.695 39.529 39.524 39.529s39.529-17.699 39.529-39.529v-174.348l-1.408 2.012c-9.389 13.413-27.879 16.673-41.288 7.28-13.413-9.389-16.673-27.874-7.28-41.288l49.975-71.374v-82.97h58.44c1.292-1.443 2.665-2.789 4.175-3.922 1.017-0.782 2.092-1.501 3.229-2.159l119.514-69.002c14.177-8.186 32.307-3.327 40.497 10.85 8.186 14.181 3.327 32.311-10.85 40.497l-41.114 23.735h26.711c27.288 0 49.411-22.118 49.411-49.406s-22.123-49.411-49.411-49.411z"></path>
<path fill="#490094" d="M765.553 529.883c9.451-5.459 12.689-17.544 7.235-26.995-3.411-5.912-9.411-9.389-15.74-9.838-3.797-0.271-7.715 0.555-11.259 2.603l-119.514 68.998c-0.209 0.124-0.386 0.271-0.591 0.395-0.542 0.342-1.088 0.68-1.586 1.057l-0.018 0.018-0.018 0.013c-1.617 1.217-3.078 2.709-4.313 4.468l-106.141 151.586c-6.258 8.941-4.086 21.266 4.854 27.524 3.353 2.35 7.182 3.513 10.988 3.575 0.4 0.004 0.795-0.076 1.195-0.093 0.866-0.040 1.732-0.058 2.585-0.209 0.484-0.084 0.942-0.271 1.417-0.391 0.751-0.191 1.51-0.342 2.238-0.617 0.586-0.227 1.128-0.564 1.697-0.848 0.573-0.284 1.173-0.515 1.719-0.857 2.176-1.364 4.122-3.176 5.685-5.41l103.681-148.073 59.95-34.612z"></path>
</svg>
