<!-- Generated by IcoMoon.io -->
<svg version="1.1" xmlns="http://www.w3.org/2000/svg" width="2893" height="1024" viewBox="0 0 2893 1024">
<title></title>
<g id="icomoon-ignore">
</g>
<path fill="#490094" d="M512 0h1868.8c282.767 0 512 229.233 512 512s-229.233 512-512 512h-1868.8v-1024z"></path>
<path fill="#fff" d="M512 117.176c13.978 0 25.313-11.336 25.313-25.313s-11.336-25.313-25.313-25.313-25.313 11.336-25.313 25.313 11.336 25.313 25.313 25.313z"></path>
<path fill="#fff" d="M301.937 173.466c13.978 0 25.303-11.336 25.303-25.313s-11.336-25.313-25.303-25.313-25.313 11.336-25.313 25.313 11.336 25.313 25.313 25.313z"></path>
<path fill="#fff" d="M148.152 327.24c13.978 0 25.313-11.336 25.313-25.313s-11.336-25.313-25.313-25.313-25.313 11.336-25.313 25.313 11.336 25.313 25.313 25.313z"></path>
<path fill="#fff" d="M91.873 537.313c13.978 0 25.313-11.336 25.313-25.313s-11.336-25.313-25.313-25.313-25.313 11.336-25.313 25.313 11.336 25.313 25.313 25.313z"></path>
<path fill="#fff" d="M148.152 747.377c13.978 0 25.313-11.336 25.313-25.313s-11.336-25.313-25.313-25.313-25.313 11.336-25.313 25.313 11.336 25.313 25.313 25.313z"></path>
<path fill="#fff" d="M301.937 901.151c13.978 0 25.303-11.336 25.303-25.313s-11.336-25.313-25.303-25.313-25.313 11.336-25.313 25.313 11.336 25.313 25.313 25.313z"></path>
<path fill="#fff" d="M512 957.44c13.978 0 25.313-11.336 25.313-25.313s-11.336-25.313-25.313-25.313-25.313 11.336-25.313 25.313 11.336 25.313 25.313 25.313z"></path>
<path fill="#fff" d="M722.063 901.151c13.978 0 25.313-11.336 25.313-25.313s-11.336-25.313-25.313-25.313-25.313 11.336-25.313 25.313 11.336 25.313 25.313 25.313z"></path>
<path fill="#fff" d="M875.848 747.377c13.978 0 25.313-11.336 25.313-25.313s-11.336-25.313-25.313-25.313-25.313 11.336-25.313 25.313 11.336 25.313 25.313 25.313z"></path>
<path fill="#fff" d="M932.127 537.313c13.978 0 25.313-11.336 25.313-25.313s-11.336-25.313-25.313-25.313-25.313 11.336-25.313 25.313 11.336 25.313 25.313 25.313z"></path>
<path fill="#fff" d="M875.848 327.24c13.978 0 25.313-11.336 25.313-25.313s-11.336-25.313-25.313-25.313-25.313 11.336-25.313 25.313 11.336 25.313 25.313 25.313z"></path>
<path fill="#fff" d="M722.063 173.466c13.978 0 25.313-11.336 25.313-25.313s-11.336-25.313-25.313-25.313-25.313 11.336-25.313 25.313 11.336 25.313 25.313 25.313z"></path>
<path fill="#fff" opacity="0.2" d="M512 785.684l-80.159-80.159h-113.367v-113.367l-80.159-80.159 80.159-80.159v-113.367h113.367l80.159-80.159 80.159 80.159h113.367v113.367l80.159 80.159-80.159 80.159v113.367h-113.367l-80.159 80.159zM512 855.040l100.475-100.475h142.090v-142.090l100.475-100.475-100.475-100.475v-142.090h-142.090l-100.475-100.475-100.475 100.475h-142.090v142.090l-100.475 100.475 100.475 100.475v142.1h142.090l100.475 100.465z"></path>
<path fill="#fff" d="M471.040 512c0-28.273 22.927-51.2 51.2-51.2h238.592c28.273 0 51.2 22.927 51.2 51.2s-22.927 51.2-51.2 51.2h-238.592c-28.273 0-51.2-22.927-51.2-51.2z"></path>
<path fill="#fff" d="M512 471.040c22.62 0 40.96 18.34 40.96 40.96v424.96c0 22.62-18.34 40.96-40.96 40.96s-40.96-18.34-40.96-40.96v-424.96c0-22.62 18.34-40.96 40.96-40.96z"></path>
<path fill="#fff" d="M957.44 511.488c0 34.215-27.737 61.952-61.952 61.952s-61.952-27.737-61.952-61.952c0-34.215 27.737-61.952 61.952-61.952s61.952 27.737 61.952 61.952z"></path>
<path fill="#4e2b81" d="M778.127 501.76c-5.652-9.8-18.176-13.148-27.976-7.496l-123.843 71.506c-0.799 0.461-1.546 0.963-2.253 1.505l-0.020 0.020h-0.020c-1.679 1.28-3.195 2.816-4.465 4.649l-109.988 157.082c-6.492 9.267-4.239 22.036 5.028 28.518s22.036 4.239 28.518-5.028l107.438-153.436 120.084-69.335c9.8-5.652 13.148-18.176 7.496-27.976zM745.032 485.396c14.694-8.489 33.485-3.451 41.964 11.244s3.451 33.485-11.244 41.964l-118.118 68.198-106.138 151.572c-9.728 13.896-28.887 17.275-42.783 7.547s-17.275-28.887-7.547-42.783l109.988-157.082c1.894-2.714 4.168-5.028 6.687-6.932 1.055-0.809 2.171-1.556 3.348-2.232l123.843-71.506z"></path>
<path fill="#fff" d="M750.152 494.264c9.8-5.652 22.323-2.294 27.976 7.496 5.652 9.8 2.304 22.323-7.496 27.976l-120.084 69.335-107.438 153.436c-6.492 9.267-19.261 11.52-28.518 5.028-9.267-6.492-11.52-19.261-5.028-28.518l109.988-157.082c1.28-1.823 2.796-3.369 4.465-4.628h0.020s0.020-0.031 0.020-0.031c0.707-0.543 1.454-1.044 2.253-1.505l123.843-71.506z"></path>
<path fill="#fff" d="M2077.757 147.476c-57.283 14.612-28.273 43.418-35.277 174.039 5.161 154.092-19.507 175.237 39.004 133.878 6.195-8.899 2.57-47.933 3.707-155.689-1.137-165.417 2.959-154.696-7.424-152.218v0zM1322.097 232.346c-25.313 7.69-14.121 44.923 11.141 37.714 22.764-9.431 12.349-44.042-11.141-37.714zM1375.949 232.346c-25.733 7.117-13.568 45.312 11.131 37.714 22.508-8.714 11.96-44.503-11.131-37.714zM1880.955 273.838c-74.691 5.11-116.644 111.575-53.842 158.822-141.087 2.038-137.001 15.708-135.537-133.356-16.712-0.942-31.539 6.717-39.916 20.746-1.341 0.123-0.84 94.177-0.932 113.152-141.844 3.973-123.085-0.010-124.396-133.898-16.026-0.266-30.444 4.475-38.994 17.91-6.185 2.959-2.918 91.965-3.707 115.988-74.742-8.12-230.164 21.914-257.147-24.504-11.868-14.019-9.185-49.285-11.141-67.901-1.444-9.144-10.629-17.388-19.497-19.794-26.931-13.005-8.817 88.76-2.785 99.011 10.691 29.307 43.489 48.732 75.192 51.866-10.496 1.239 235.233 1.321 224.655 0-0.143-1.27 7.578-0.614 7.434-1.884 5.56-3.205 15.258-7.332 18.565-14.377 2.765-2.15 4.403-12.155 8.806-6.943 26.767 31.242 23.839 21.944 81.234 24.146 54.221-2.509 54.108 7.434 77.056-20.541 3.86-10.885 9.073 5.089 12.626 7.342 7.741 5.622 15.442 10.742 24.504 12.257-16.712 1.229 248.771 1.28 232.079 0-0.133-1.28 5.704-0.604 5.571-1.884 28.733-14.756 27.617-25.16 27.853-67.891 5.786-75.090-32.358-137.196-107.684-128.236v0zM2226.289 273.828c-155.341 38.523-85.053 234.527 68.7 198.963 3.092 60.836-61.184 83.098-111.933 71.66-17.357-0.092-4.454 12.462 2.386 14.141 71.168 35.942 153.641 2.253 152.248-85.801 43.899 1.239 81.541 0.287 103.967-37.929 3.871-9.431 3.246-4.413 9.288 3.041 24.504 40.653 86.825 45.425 122.532 16.978 92.232-76.206-15.34-240.947-116.726-163.123-64.195 44.001-6.072 162.714-119.071 141.435 8.008-78.356-19.405-170.977-111.401-159.355v0zM1895.803 307.784c57.375 9.267 50.033 72.397 50.135 125.409-139.807 25.764-129.126-123.535-50.135-125.409zM2241.137 307.784c59.832 6.738 53.914 72.643 53.852 125.409-141.732 23.542-138.588-118.968-53.852-125.409zM2514.063 307.784c65.219 4.024 69.437 130.007-0.922 129.188-71.537 0.102-64.573-129.208 0.922-129.188zM1637.734 517.11c-24.781 7.741-14.674 45.251 11.141 37.714 23.009-7.782 12.913-43.52-11.141-37.714zM1691.576 517.11c-21.084 6.001-18.381 37.714 4.639 38.666 29.256-1.741 22.856-44.892-4.639-38.666zM1861.14 201.964c-24.781 7.741-14.674 45.251 11.141 37.714 23.009-7.782 12.913-43.52-11.141-37.714zM1914.982 201.964c-21.084 6.001-18.381 37.714 4.639 38.666 29.256-1.741 22.856-44.892-4.639-38.666z"></path>
<path fill="#fff" d="M2201.19 593.541c-85.873 8.325-122.911 111.606-85.279 181.975 13.015 25.498 38.277 48.138 65.137 54.487 6.646 2.529 15.985 1.874 22.825 3.697 3.041 1.772 3.604 6.021 6.042 8.745 13.793 21.453 46.582 23.040 65.116 8.407 2.202-1.075 19.63-17.961 10.762-16.476-10.854 4.874-26.163 9.247-38.277 4.035-4.014-1.69-12.698-8.95-4.7-11.1 4.854-2.253 9.748-4.526 14.438-7.404 20.992-12.124 40.376-33.843 49.019-55.163 35.297-73.646-16.118-178.176-105.083-171.213v0zM1204.767 596.9c-7.834 0.768-15.944 6.257-16.783 14.807-1.495 2.243-0.287 181.586-0.676 220.017 1.884 3.052 8.878 1.208 11.418 0.645 6.134-1.075 11.561-6.031 13.763-11.776 1.198-4.536 0.983-23.214 1.004-74.67 1.024-47.657-2.273-83.395 2.355-67.277 10.097 23.163 19.743 46.623 29.542 69.97 7.762 17.838 14.971 36.045 22.825 53.821 2.601 6.82 5.55 13.496 8.397 20.183 4.127 13.292 9.103 14.479 18.125 2.611 5.448-7.967 8.346-16.558 12.431-24.822 5.458-11.090 10.404-22.497 15.77-33.638 11.172-24.013 22.354-47.995 33.577-71.987 2.836-6.031 5.581-12.124 8.397-18.166 0.215 0 0.328 22.651 0.328 67.277s0.113 67.277 0.338 67.277c0.44-0.164 0.236 4.874 0.676 4.71 1.219 6.861 7.567 13.937 14.428 15.811 26.184 3.748 11.919 13.046 15.452-116.234-3.717-110.633 10.127-121.487-12.093-117.873-9.974 1.28-16.128 11.407-19.139 19.845-2.867 5.468-5.499 11.172-8.059 16.814-8.069 16.23-15.452 32.881-23.501 49.111-10.742 22.938-21.668 45.773-32.563 68.618-3.267 7.24-7.004 14.172-10.076 21.535-1.608 2.918-3.256-6.031-4.362-6.728-2.028-5.233-4.372-10.424-6.717-15.473-14.223-33.761-28.744-67.348-43.305-100.915-4.823-11.633-9.892-23.050-14.776-34.642-1.638-4.321-3.748-8.141-5.366-12.442-0.922-1.792-1.516-3.635-2.693-5.458-0.072-1.72-7.823-1.382-8.724-0.932h0.010zM1541.161 596.91c-25.18-0.092-29.921 20.746-36.598 39.352-5.847 15.882-11.581 31.898-17.459 47.759-16.568 45.302-32.963 90.706-49.684 135.895-0.799 4.352-4.362 8.786-3.881 12.974 10.23 1.434 24.474 0.41 30.403-9.032 3.717-5.458 4.71-12.073 7.055-18.074 3.553-9.718 6.769-19.743 10.066-29.604 11.346-21.443-12.687-11.848 48.824-14.131 57.467 2.601 37.939-8.253 47.862 13.455 3.011 9.226 6.431 18.34 9.4 27.587 2.611 7.014 4.014 14.51 8.397 20.767 7.455 8.54 15.872 8.878 27.72 9.503 12.411 1.423 5.007-5.274 4.178-10.762-18.022-48.865-35.42-98.099-53.381-146.995-6.083-16.978-12.145-33.956-18.463-50.79-1.956-5.581-3.758-11.438-6.042-16.814-1.71-3.891-2.355-12.503-8.397-11.1h-0.010zM1633.147 596.91c-5.458 0.42-3.932 3.052-2.683 7.066 1.044 4.772 2.591 9.411 3.686 14.131 3.789 14.541 7.752 29.133 11.418 43.725 11.090 40.929 21.535 82.166 32.563 123.105 2.54 10.465 5.478 20.511 8.059 30.945 0.727 3.676 1.966 6.41 2.683 10.086 0.768 2.632 0.666 5.99 3.359 7.066 11.438 1.362 26.634-2.58 29.542-14.797 12.093-53.187 23.91-106.547 35.922-159.775 0.645-2.345 0.993-5.908 2.017-8.069 1.178 2.806 1.516 6.615 2.683 9.411 2.918 11.715 6.001 23.327 9.073 34.98 9.124 35.256 18.237 70.441 27.525 105.615 1.638 7.127 3.645 13.763 5.376 20.859 1.536 3.686 0.748 9.144 4.168 11.438 7.383 1.7 17.306-0.297 23.357-4.372 5.919-3.666 7.035-10.476 8.397-16.486 14.152-62.075 28.068-124.303 42.301-186.348 1.167-9.267 5.745-18.412 5.222-27.771-11.008-2.898-25.733 2.376-29.061 13.978-9.667 41.8-19.272 83.63-28.877 125.471-1.812 7.834-3.615 15.34-5.366 23.214-0.676 2.437-1.495 10.598-2.693 4.372-5.591-21.105-11.090-42.179-16.783-63.242-5.509-21.258-11.233-42.342-16.783-63.57-6.083-21.217-4.71-35.717-30.884-40.366-16.896-3.533-12.544 5.304-16.456 17.152-2.56 11.858-5.376 23.839-8.059 35.656-7.373 32.502-14.858 65.014-22.159 97.546-1.69 6.308-2.673 13.373-4.7 19.507-2.519-8.653-4.772-17.439-7.045-26.235-7.956-30.054-16.036-60.027-23.839-90.143-3.748-12.503-6.39-25.62-10.404-38.011-5.192-11.858-20.224-15.841-31.56-16.148v0zM1994.383 596.91c-25.19-0.092-29.911 20.746-36.598 39.352-5.827 15.892-11.602 31.887-17.449 47.759-16.589 45.281-32.942 90.696-49.695 135.895-0.788 4.352-4.362 8.786-3.881 12.974 10.23 1.434 24.474 0.42 30.403-9.032 3.717-5.458 4.721-12.073 7.055-18.074 3.564-9.708 6.769-19.732 10.066-29.604 11.346-21.432-12.687-11.848 48.824-14.131 56.637 2.662 38.175-8.141 47.534 12.442 2.959 9.339 6.431 18.248 9.4 27.587 2.714 7.434 4.188 15.155 8.724 21.78 7.455 8.54 15.882 8.878 27.72 9.503 11.909 1.229 5.499-4.321 4.516-9.759-18.063-49.254-35.666-98.744-53.719-147.999-6.083-16.978-12.134-33.966-18.463-50.79-1.956-5.581-3.748-11.438-6.042-16.814-1.71-3.901-2.345-12.503-8.397-11.1v0zM2383.145 596.91c-10.506 0-22.333 5.489-24.504 16.486-2.755 8.346-0.041 175.329-1.004 218.327 8.817 4.895 27.034 0.379 29.204-10.455 0.778-1.434 0.788-5.161 1.341-6.728 0.307 0.317 0.43-180.644 0.338-216.32-0.768-1.556-4.106-2.15-5.376-1.321v0zM2446.94 596.91c-6.246 0.563-12.749 2.13-16.456 7.741-3.318 4.372-7.219 13.445-3.686 18.166 0.635 1.464 59.699 0.287 72.509 0.676v208.241c8.899 5.683 27.822-3.871 29.542-14.152 0.573-0.85 0.594-4.157 1.014-5.048 0.307 0.307 0.42-157.88 0.328-189.041 25.416-2.836 62.812 8.96 70.84-13.455 0.911-2.714 3.686-12.012-0.338-13.117 0-0.225-25.846-0.338-76.872-0.338s-76.882 0.113-76.882 0.338h0.010zM2215.291 620.452c59.986 6.298 83.128 82.493 62.781 132.864-24.484 65.034-103.117 72.028-134.287 7.404-27.658-53.514 0.492-144.886 71.506-140.268zM1529.938 639.437c10.793 29.962 21.268 59.648 31.703 89.672 6.902 11.356-4.874 3.953-31.898 6.062-34.017 0-34.243 0-34.243-0.676 0.819-1.905 1.362-3.686 2.017-5.724 6.769-19.436 13.855-38.676 20.48-58.184 3.031-7.148 4.977-15.084 8.059-22.2 1.065-1.536 2.191-10.117 3.881-8.94v0zM1983.16 639.437c10.793 29.962 21.268 59.648 31.703 89.672 6.912 11.356-4.884 3.953-31.898 6.062-34.017 0-34.243 0-34.243-0.676 0.829-1.894 1.362-3.686 2.017-5.724 6.769-19.425 13.855-38.676 20.48-58.184 3.041-7.148 4.977-15.084 8.059-22.2 1.075-1.526 2.181-10.117 3.881-8.94v0z"></path>
<path fill="#fff" d="M1024 512c0 282.77-229.23 512-512 512s-512-229.23-512-512c0-282.77 229.23-512 512-512s512 229.23 512 512z"></path>
<path fill="#490094" d="M512 117.176c13.978 0 25.313-11.336 25.313-25.313s-11.336-25.313-25.313-25.313-25.313 11.336-25.313 25.313 11.336 25.313 25.313 25.313z"></path>
<path fill="#490094" d="M301.937 173.466c13.978 0 25.313-11.336 25.313-25.313s-11.336-25.313-25.313-25.313-25.313 11.336-25.313 25.313 11.336 25.313 25.313 25.313z"></path>
<path fill="#490094" d="M148.152 327.24c13.978 0 25.313-11.336 25.313-25.313s-11.336-25.313-25.313-25.313-25.313 11.336-25.313 25.313 11.336 25.313 25.313 25.313z"></path>
<path fill="#490094" d="M91.863 537.313c13.978 0 25.313-11.336 25.313-25.313s-11.336-25.313-25.313-25.313-25.313 11.336-25.313 25.313 11.336 25.313 25.313 25.313z"></path>
<path fill="#490094" d="M148.152 747.377c13.978 0 25.313-11.336 25.313-25.313s-11.336-25.313-25.313-25.313-25.313 11.336-25.313 25.313 11.336 25.313 25.313 25.313z"></path>
<path fill="#490094" d="M301.937 901.151c13.978 0 25.313-11.336 25.313-25.313s-11.336-25.313-25.313-25.313-25.313 11.336-25.313 25.313 11.336 25.313 25.313 25.313z"></path>
<path fill="#490094" d="M512 957.44c13.978 0 25.313-11.336 25.313-25.313s-11.336-25.313-25.313-25.313-25.313 11.336-25.313 25.313 11.336 25.313 25.313 25.313z"></path>
<path fill="#490094" d="M722.063 901.151c13.978 0 25.313-11.336 25.313-25.313s-11.336-25.313-25.313-25.313-25.313 11.336-25.313 25.313 11.336 25.313 25.313 25.313z"></path>
<path fill="#490094" d="M875.837 747.377c13.978 0 25.313-11.336 25.313-25.313s-11.336-25.313-25.313-25.313-25.313 11.336-25.313 25.313 11.336 25.313 25.313 25.313z"></path>
<path fill="#490094" d="M932.127 537.313c13.978 0 25.313-11.336 25.313-25.313s-11.336-25.313-25.313-25.313-25.313 11.336-25.313 25.313 11.336 25.313 25.313 25.313z"></path>
<path fill="#490094" d="M875.837 327.24c13.978 0 25.313-11.336 25.313-25.313s-11.336-25.313-25.313-25.313-25.313 11.336-25.313 25.313 11.336 25.313 25.313 25.313z"></path>
<path fill="#490094" d="M722.063 173.466c13.978 0 25.313-11.336 25.313-25.313s-11.336-25.313-25.313-25.313-25.313 11.336-25.313 25.313 11.336 25.313 25.313 25.313z"></path>
<path fill="#490094" opacity="0.2" d="M512 785.684l-80.159-80.159h-113.367v-113.367l-80.159-80.159 80.159-80.159v-113.367h113.367l80.159-80.159 80.159 80.159h113.367v113.367l80.159 80.159-80.159 80.159v113.367h-113.367l-80.159 80.159zM512 855.040l100.475-100.475h142.090v-142.090l100.475-100.475-100.475-100.475v-142.090h-142.090l-100.475-100.475-100.475 100.475h-142.090v142.090l-100.475 100.475 100.475 100.475v142.1h142.090l100.475 100.465z"></path>
<path fill="#490094" d="M471.040 512c0-28.283 22.927-51.2 51.2-51.2h238.592c28.283 0 51.2 22.927 51.2 51.2s-22.927 51.2-51.2 51.2h-238.592c-28.283 0-51.2-22.927-51.2-51.2v0z"></path>
<path fill="#490094" d="M512 471.040c22.62 0 40.96 18.34 40.96 40.96v424.96c0 22.62-18.34 40.96-40.96 40.96s-40.96-18.34-40.96-40.96v-424.96c0-22.62 18.34-40.96 40.96-40.96z"></path>
<path fill="#490094" d="M957.44 511.488c0 34.215-27.737 61.952-61.952 61.952s-61.952-27.737-61.952-61.952c0-34.215 27.737-61.952 61.952-61.952s61.952 27.737 61.952 61.952z"></path>
<path fill="#fff" d="M778.127 501.76c-5.663-9.789-18.176-13.148-27.976-7.496l-123.843 71.506c-0.799 0.461-1.546 0.963-2.253 1.505l-0.041 0.041c-1.679 1.26-3.195 2.806-4.475 4.628l-109.988 157.071c-6.492 9.267-4.239 22.036 5.028 28.518 9.267 6.492 22.036 4.239 28.518-5.028l107.438-153.436 120.084-69.335c9.8-5.663 13.148-18.186 7.496-27.976h0.010zM745.032 485.396c14.694-8.479 33.485-3.451 41.964 11.244s3.451 33.485-11.244 41.964l-118.118 68.198-106.138 151.572c-9.728 13.896-28.887 17.275-42.783 7.547s-17.275-28.887-7.547-42.783l109.988-157.071c1.905-2.714 4.157-5.028 6.687-6.932 1.055-0.809 2.171-1.556 3.348-2.232l123.843-71.506z"></path>
<path fill="#490094" d="M750.152 494.264c9.8-5.663 22.323-2.304 27.976 7.496 5.663 9.789 2.304 22.323-7.496 27.976l-120.084 69.335-107.438 153.436c-6.492 9.267-19.261 11.52-28.518 5.028-9.267-6.482-11.52-19.261-5.028-28.518l109.988-157.082c1.28-1.823 2.785-3.369 4.475-4.628l0.041-0.041c0.707-0.543 1.454-1.044 2.253-1.505l123.832-71.506z"></path>
</svg>
