<?xml version="1.0" encoding="UTF-8"?>
<!DOCTYPE svg PUBLIC "-//W3C//DTD SVG 1.1//EN" "http://www.w3.org/Graphics/SVG/1.1/DTD/svg11.dtd">
<svg xmlns="http://www.w3.org/2000/svg" version="1.1" width="784px" height="784px" style="shape-rendering:geometricPrecision; text-rendering:geometricPrecision; image-rendering:optimizeQuality; fill-rule:evenodd; clip-rule:evenodd" xmlns:xlink="http://www.w3.org/1999/xlink">
<g><path style="opacity:0.984" fill="#fefffe" d="M 364.5,-0.5 C 382.5,-0.5 400.5,-0.5 418.5,-0.5C 539.947,11.1236 637.114,65.457 710,162.5C 753.012,223.03 777.512,290.364 783.5,364.5C 783.5,382.5 783.5,400.5 783.5,418.5C 771.783,540.466 717.117,637.966 619.5,711C 559.08,753.308 492.08,777.474 418.5,783.5C 400.5,783.5 382.5,783.5 364.5,783.5C 228.027,769.55 123.86,704.55 52,588.5C 22.0855,535.929 4.58546,479.595 -0.5,419.5C -0.5,401.167 -0.5,382.833 -0.5,364.5C 14.2129,228.853 79.2129,125.02 194.5,53C 247.219,22.3702 303.885,4.53691 364.5,-0.5 Z M 367.5,58.5 C 457.002,53.7811 536.335,79.4478 605.5,135.5C 449.861,292.806 293.527,449.473 136.5,605.5C 74.9096,530.525 49.7429,444.525 61,347.5C 78.9179,234.982 137.418,151.148 236.5,96C 277.833,74.9208 321.499,62.4208 367.5,58.5 Z M 646.5,177.5 C 706.275,249.837 731.775,333.17 723,427.5C 706.196,549.026 643.363,637.526 534.5,693C 455.977,728.679 375.31,734.346 292.5,710C 249.184,696.471 211.017,674.971 178,645.5C 334.062,489.272 490.228,333.272 646.5,177.5 Z M 385.5,545.5 C 408.116,544.449 421.116,555.116 424.5,577.5C 422.577,597.257 411.743,608.257 392,610.5C 368.725,607.227 358.058,593.894 360,570.5C 363.763,557.236 372.263,548.902 385.5,545.5 Z"/></g>
<g><path style="opacity:0.173" fill="#fefffe" d="M 568.5,132.5 C 570.027,132.427 571.027,133.094 571.5,134.5C 569.973,134.573 568.973,133.906 568.5,132.5 Z"/></g>
<g><path style="opacity:0.981" fill="#fefffe" d="M 293.5,151.5 C 358.834,151.333 424.168,151.5 489.5,152C 508.54,156.378 522.207,167.378 530.5,185C 517.319,198.347 503.986,211.514 490.5,224.5C 489.526,222.257 489.192,219.924 489.5,217.5C 424.167,217.5 358.833,217.5 293.5,217.5C 293.667,285.834 293.5,354.167 293,422.5C 278.653,437.014 264.153,451.347 249.5,465.5C 249.167,421.667 248.833,377.833 248.5,334C 248.354,287.476 248.854,240.976 250,194.5C 256.447,171.885 270.947,157.552 293.5,151.5 Z"/></g>
<g><path style="opacity:0.952" fill="#fefffe" d="M 165.5,304.5 C 171.479,309.812 177.146,315.479 182.5,321.5C 153.932,354.436 149.432,390.436 169,429.5C 172.678,435.522 176.845,441.189 181.5,446.5C 176.471,452.363 170.971,457.697 165,462.5C 149.58,447.342 139.58,429.009 135,407.5C 128.123,367.977 138.29,333.644 165.5,304.5 Z"/></g>
<g><path style="opacity:0.952" fill="#fefffe" d="M 615.5,305.5 C 616.552,305.351 617.552,305.517 618.5,306C 650.373,341.719 658.206,382.219 642,427.5C 636.653,441.147 628.653,452.814 618,462.5C 612.029,457.697 606.529,452.363 601.5,446.5C 629.232,413.644 633.398,377.977 614,339.5C 610.077,333.076 605.577,327.076 600.5,321.5C 605.522,316.146 610.522,310.813 615.5,305.5 Z"/></g>
<g><path style="opacity:0.98" fill="#fefffe" d="M 532.5,317.5 C 533.833,361.662 534.5,406.162 534.5,451C 534.333,495.5 534.167,540 534,584.5C 529.822,610.344 514.989,626.177 489.5,632C 424.5,632.667 359.5,632.667 294.5,632C 274.519,628.016 260.519,616.683 252.5,598C 277.5,573 302.5,548 327.5,523C 381.499,522.5 435.499,522.333 489.5,522.5C 489.333,468.499 489.5,414.499 490,360.5C 504.369,346.299 518.535,331.965 532.5,317.5 Z M 385.5,545.5 C 372.263,548.902 363.763,557.236 360,570.5C 358.058,593.894 368.725,607.227 392,610.5C 411.743,608.257 422.577,597.257 424.5,577.5C 421.116,555.116 408.116,544.449 385.5,545.5 Z"/></g>
<g><path style="opacity:0.952" fill="#fefffe" d="M 198.5,337.5 C 204.479,342.812 210.146,348.479 215.5,354.5C 201.704,370.877 199.871,388.543 210,407.5C 211.458,409.96 213.291,412.127 215.5,414C 209.985,419.682 204.319,425.182 198.5,430.5C 185.592,418.001 179.258,402.667 179.5,384.5C 179.49,366.197 185.823,350.531 198.5,337.5 Z"/></g>
<g><path style="opacity:0.948" fill="#fefffe" d="M 583.5,337.5 C 600.027,353.247 606.527,372.58 603,395.5C 601.013,409.479 594.846,421.145 584.5,430.5C 578.681,425.182 573.015,419.682 567.5,414C 579.422,401.133 582.589,386.3 577,369.5C 574.821,363.832 571.654,358.832 567.5,354.5C 572.855,348.813 578.188,343.146 583.5,337.5 Z"/></g>
</svg>
