<svg xmlns="http://www.w3.org/2000/svg" viewBox="0 0 1024.09 1023.85" xmlns:v="https://vecta.io/nano"><path d="M222.83 337.94l.59.62c4.74 5.39 4.2 13.6-1.19 18.34-43.29 38.01-69 96.97-68.76 157.74-.24 60.87 25.46 119.85 68.75 157.84 5.4 4.76 5.93 12.95 1.19 18.34s-12.95 5.93-18.34 1.19c-48.86-42.9-77.86-109.21-77.59-177.38-.26-68.07 28.75-134.37 77.61-177.27 5.18-4.54 12.95-4.23 17.75.57h-.01zm44.36 57.94l.59.62c4.74 5.39 4.2 13.6-1.19 18.34-27.36 24.02-43.61 61.33-43.46 99.8-.15 38.57 16.09 75.89 43.45 99.91 5.4 4.76 5.93 12.95 1.19 18.34s-12.95 5.93-18.34 1.19c-32.93-28.91-52.47-73.56-52.29-119.44-.18-45.78 19.37-90.43 52.3-119.33a12.98 12.98 0 0 1 17.75.57h0zm522.56-57.94l-.59.62c-4.74 5.39-4.2 13.6 1.19 18.34 43.29 38.01 69 96.97 68.76 157.74.24 60.87-25.46 119.85-68.75 157.84-5.4 4.76-5.93 12.95-1.19 18.34s12.95 5.93 18.34 1.19c48.86-42.9 77.86-109.21 77.59-177.38.26-68.07-28.75-134.37-77.61-177.27-5.18-4.54-12.95-4.23-17.75.57h0zm-44.35 57.94l-.59.62c-4.74 5.39-4.2 13.6 1.19 18.34 27.36 24.02 43.61 61.33 43.46 99.8.15 38.57-16.09 75.89-43.45 99.91-5.4 4.76-5.93 12.95-1.19 18.34s12.95 5.93 18.34 1.19c32.93-28.91 52.47-73.56 52.29-119.44.18-45.78-19.37-90.43-52.3-119.33a12.98 12.98 0 0 0-17.75.57h0zm-38.43-55.85l-.02-58.58a8.15 8.15 0 0 0-5.69-7.77l-.03-74.35c-.01-32.75-25.23-59.29-56.33-59.28l-277.78.11c-31.1 0-56.3 26.57-56.29 59.32l.02 55.09c-2.94.27-5.23 2.74-5.23 5.74l.02 59.13c0 3.01 2.3 5.47 5.24 5.74v25.14c-2.93.27-5.22 2.74-5.22 5.74l.04 96.76c0 3.01 2.3 5.47 5.24 5.74l.14 371.49c.01 32.75 25.23 59.29 56.33 59.28l277.78-.11c31.1-.01 56.3-26.57 56.29-59.32l-.18-482.11c3.3-1.05 5.69-4.13 5.68-7.78v.02zM488.73 157.9l57.98-.02c1.46 0 2.64 1.18 2.64 2.63s-1.18 2.64-2.63 2.64l-57.98.02c-1.46 0-2.64-1.18-2.64-2.63s1.18-2.64 2.63-2.64h0zm-14.17-1.2a3.84 3.84 0 1 1 0 7.68 3.84 3.84 0 1 1 0-7.68zm165.95 698.69l-268.47.1c-23.15 0-41.92-18.95-41.93-42.35l-.23-596.76c0-23.4 18.75-42.37 41.9-42.38l268.47-.11c23.15 0 41.92 18.95 41.93 42.35l.23 596.76c0 23.4-18.75 42.37-41.9 42.38h0z" fill="#fff"/><path d="M983.85 711.2c26.7-63.15 40.24-130.2 40.24-199.28s-13.54-136.11-40.25-199.27c-25.8-60.97-62.72-115.71-109.72-162.71-47.03-47.02-101.79-83.93-162.75-109.69C648.22 13.54 581.16 0 512.05 0S375.87 13.54 312.74 40.24c-60.97 25.77-115.73 62.68-162.76 109.69-47 46.99-83.92 101.73-109.72 162.72C13.54 375.8 0 442.84 0 511.91S13.54 648.04 40.25 711.2c25.8 60.97 62.71 115.71 109.72 162.71s101.76 83.9 162.76 109.69c63.14 26.71 130.2 40.24 199.31 40.24s136.18-13.54 199.31-40.24c60.99-25.8 115.76-62.7 162.76-109.69s83.92-101.73 109.72-162.72h0zM164.56 825.67l-22.69-29.51c-62.4-81.13-96.76-182.08-96.76-284.25 0-257.42 209.47-466.84 466.95-466.84 102.21 0 203.18 34.36 284.32 96.76l29.51 22.69-661.35 661.15h0zm347.5 153.09c-102.22 0-203.19-34.35-284.32-96.74l-29.51-22.69 661.32-661.15 22.69 29.51C944.64 308.82 979 409.76 979 511.92c0 257.42-209.47 466.84-466.95 466.84h0z" fill="#f21111"/></svg>