<!-- Generated by IcoMoon.io -->
<svg version="1.1" xmlns="http://www.w3.org/2000/svg" width="1024" height="1024" viewBox="0 0 1024 1024">
<title></title>
<g id="icomoon-ignore">
</g>
<path fill="#490094" d="M222.74 338.090c0.2 0.2 0.4 0.41 0.59 0.62 4.74 5.39 4.2 13.6-1.19 18.34-43.29 38.010-69 96.97-68.76 157.74-0.24 60.87 25.46 119.85 68.75 157.84 5.4 4.76 5.93 12.95 1.19 18.34s-12.95 5.93-18.34 1.19c-48.86-42.9-77.86-109.21-77.59-177.38-0.26-68.070 28.75-134.37 77.61-177.27 5.18-4.54 12.95-4.23 17.75 0.57z"></path>
<path fill="#490094" d="M267.1 396.030c0.2 0.2 0.4 0.41 0.59 0.62 4.74 5.39 4.2 13.6-1.19 18.34-27.36 24.020-43.61 61.33-43.46 99.8-0.15 38.57 16.090 75.89 43.45 99.91 5.4 4.76 5.93 12.95 1.19 18.34s-12.95 5.93-18.34 1.19c-32.93-28.91-52.47-73.56-52.29-119.44-0.18-45.78 19.37-90.43 52.3-119.33 5.18-4.55 12.95-4.24 17.75 0.57z"></path>
<path fill="#490094" d="M789.66 338.090c-0.2 0.2-0.4 0.41-0.59 0.62-4.74 5.39-4.2 13.6 1.19 18.34 43.29 38.010 69 96.97 68.76 157.74 0.24 60.87-25.46 119.85-68.75 157.84-5.4 4.76-5.93 12.95-1.19 18.34s12.95 5.93 18.34 1.19c48.86-42.9 77.86-109.21 77.59-177.38 0.26-68.070-28.75-134.37-77.61-177.27-5.18-4.54-12.95-4.23-17.75 0.57z"></path>
<path fill="#490094" d="M745.31 396.030c-0.2 0.2-0.4 0.41-0.59 0.62-4.74 5.39-4.2 13.6 1.19 18.34 27.36 24.020 43.61 61.33 43.46 99.8 0.15 38.57-16.090 75.89-43.45 99.91-5.4 4.76-5.93 12.95-1.19 18.34s12.95 5.93 18.34 1.19c32.93-28.91 52.47-73.56 52.29-119.44 0.18-45.78-19.37-90.43-52.3-119.33-5.18-4.55-12.95-4.24-17.75 0.57z"></path>
<path fill="#490094" d="M706.88 340.18l-0.020-58.58c0-3.64-2.39-6.73-5.69-7.77l-0.030-74.35c-0.010-32.75-25.23-59.29-56.33-59.28l-277.78 0.11c-31.1 0.010-56.3 26.57-56.29 59.32l0.020 55.090c-2.94 0.27-5.23 2.74-5.23 5.74l0.020 59.13c0 3.010 2.3 5.47 5.24 5.74v25.14c-2.93 0.27-5.22 2.74-5.22 5.74l0.040 96.76c0 3.010 2.3 5.47 5.24 5.74l0.14 371.49c0.010 32.75 25.23 59.29 56.33 59.28l277.78-0.11c31.1-0.010 56.3-26.57 56.29-59.32l-0.18-482.11c3.3-1.050 5.69-4.13 5.68-7.78zM488.64 158.050l57.98-0.020c1.46 0 2.64 1.18 2.64 2.63 0 1.46-1.18 2.64-2.63 2.64l-57.98 0.020c-1.46 0-2.64-1.18-2.64-2.63 0-1.46 1.18-2.64 2.63-2.64zM474.47 156.85c2.12 0 3.84 1.72 3.84 3.84s-1.72 3.84-3.84 3.84c-2.12 0-3.84-1.72-3.84-3.84s1.72-3.84 3.84-3.84zM640.42 855.54l-268.47 0.1c-23.15 0-41.92-18.95-41.93-42.35l-0.23-596.76c0-23.4 18.75-42.37 41.9-42.38l268.47-0.11c23.15 0 41.92 18.95 41.93 42.35l0.23 596.76c0 23.4-18.75 42.37-41.9 42.38z"></path>
<path fill="#3baa33" d="M512 1024c-69.11 0-136.16-13.54-199.3-40.24-60.97-25.79-115.72-62.7-162.74-109.72-47.010-47.010-83.93-101.77-109.72-162.74-26.7-63.14-40.24-130.19-40.24-199.3s13.54-136.16 40.24-199.3c25.79-60.97 62.7-115.72 109.72-162.74 47.010-47.010 101.77-83.93 162.74-109.72 63.14-26.7 130.19-40.24 199.3-40.24s136.16 13.54 199.3 40.24c60.97 25.79 115.72 62.7 162.74 109.72 47.010 47.010 83.93 101.77 109.72 162.74 26.7 63.14 40.24 130.19 40.24 199.3s-13.54 136.16-40.24 199.3c-25.79 60.97-62.7 115.72-109.72 162.74-47.010 47.010-101.77 83.93-162.74 109.72-63.14 26.7-130.19 40.24-199.3 40.24zM512 45c-63.050 0-124.21 12.34-181.77 36.69-55.61 23.52-105.55 57.2-148.45 100.090-42.9 42.9-76.57 92.84-100.090 148.45-24.35 57.56-36.69 118.72-36.69 181.77s12.34 124.21 36.69 181.77c23.52 55.61 57.2 105.55 100.090 148.45 42.9 42.9 92.84 76.57 148.45 100.090 57.56 24.35 118.72 36.69 181.77 36.69s124.21-12.34 181.77-36.69c55.61-23.52 105.55-57.2 148.45-100.090 42.9-42.9 76.57-92.84 100.090-148.45 24.35-57.56 36.69-118.72 36.69-181.77s-12.34-124.21-36.69-181.77c-23.52-55.61-57.2-105.55-100.090-148.45-42.9-42.9-92.84-76.57-148.45-100.090-57.56-24.35-118.72-36.69-181.77-36.69z"></path>
</svg>
