<!-- Generated by IcoMoon.io -->
<svg version="1.1" xmlns="http://www.w3.org/2000/svg" width="1035" height="1024" viewBox="0 0 1035 1024">
<title></title>
<g id="icomoon-ignore">
</g>
<path fill="#490094" d="M800.8 417c-157-157-409.7-157-566.7 0-13.7 13.7-34.1 13.7-47.8 0s-13.7-34.1 0-47.8c184.3-184.3 481.3-184.3 662.3 0 13.7 13.7 13.7 34.1 0 47.8s-34.1 13.6-47.8 0z"></path>
<path fill="#490094" d="M701.8 512.6c-102.4-99-266.3-99-365.3 0-13.7 13.7-34.1 13.7-47.8 0s-13.7-34.1 0-47.8c126.3-129.7 334.6-129.7 460.9 0 13.7 13.7 13.7 34.1 0 47.8-13.6 13.6-34.1 13.6-47.8 0z"></path>
<path fill="#490094" d="M606.3 615c-47.8-47.8-122.9-47.8-167.3 0-13.7 13.7-34.1 13.7-47.8 0s-13.7-37.6 0-51.2c71.7-78.5 191.2-78.5 262.9 0 13.7 13.7 13.7 37.6 0 51.2s-34.2 13.6-47.8 0z"></path>
<path fill="#490094" d="M585.8 703.7c0 35.843-29.057 64.9-64.9 64.9s-64.9-29.057-64.9-64.9c0-35.843 29.057-64.9 64.9-64.9s64.9 29.057 64.9 64.9z"></path>
<path fill="#f21111" d="M994.8 711.3c27-63.2 40.7-130.2 40.7-199.3s-13.7-136.1-40.7-199.3c-26.1-61-63.4-115.7-110.9-162.7s-102.9-83.9-164.6-109.7c-63.9-26.8-131.7-40.3-201.6-40.3s-137.7 13.5-201.5 40.3c-61.6 25.7-117 62.6-164.6 109.7-47.5 47-84.8 101.8-110.9 162.7-27 63.2-40.7 130.2-40.7 199.3s13.7 136.2 40.7 199.3c26.1 61 63.4 115.7 110.9 162.7s102.9 83.9 164.6 109.7c63.8 26.7 131.6 40.2 201.5 40.2s137.7-13.5 201.5-40.2c61.7-25.7 117.1-62.7 164.6-109.7s84.9-101.7 111-162.7v0zM166.4 825.8l-22.9-29.5c-63.1-81.2-97.9-182.1-97.9-284.3 0-257.5 211.8-466.9 472.1-466.9 103.3 0 205.4 34.4 287.5 96.8l29.8 22.7-668.6 661.2zM517.7 978.9c-103.4 0-205.4-34.4-287.5-96.8l-29.8-22.7 668.7-661.2 22.9 29.5c63.1 81.1 97.8 182.1 97.8 284.3 0 257.4-211.7 466.9-472.1 466.9v0z"></path>
</svg>
