<svg id="Layer_1" data-name="Layer 1" xmlns="http://www.w3.org/2000/svg" xmlns:xlink="http://www.w3.org/1999/xlink" viewBox="0 0 1284 2778"><defs><linearGradient id="linear-gradient" x1="642" y1="1832" x2="642" y2="2778" gradientTransform="matrix(1, 0, 0, -1, 0, 2778)" gradientUnits="userSpaceOnUse"><stop offset="0" stop-color="#fff"/><stop offset="0.47" stop-color="#ddeafc"/><stop offset="1" stop-color="#8ca3d6"/></linearGradient><linearGradient id="linear-gradient-2" x1="642" y1="2288" x2="642" y2="1603.21" gradientTransform="matrix(1, 0, 0, -1, 0, 2778)" gradientUnits="userSpaceOnUse"><stop offset="0.1" stop-color="#a3ff7a"/><stop offset="0.43" stop-color="#72c770"/><stop offset="1" stop-color="#72c770"/></linearGradient></defs><path d="M0,0H1284V2778H0Z" style="fill:url(#linear-gradient)"/><path d="M1284,631.6V1150l-213.09,13.44-635.53,11.37L0,1143.84V490c7.63,1.34,7.76-2.2,23.11,2.6,5.93,1.85,11.48,3.34,32.54,33.8,11.81,17.13,40.7,5.91,53.54,1,10.2-3.9,19.36,1.57,35.82,1.57s8.81,12.81,36,27c7.4,3.85,11.23,7.45,14.92,8.14,15.9,3,27.61,29.1,52.06,39.37s23.34,1.29,34.87,0c15.28-1.72,46,0,61.45,2.57s13.15,6.86,22.45,14.56a125.43,125.43,0,0,1,15.84,15.85s20.7,13.25,38.68,26.1S420.1,664.14,464.4,696c16.84,12.09,21.11,5.08,39.49,0s33,7.65,44.58,0,13.82-.62,37.73-10.33c10.29-4.16,42.11,3,42.11,3l33.85,17.54s8.24,7.7,63.84,25.68,47.12,10.28,56.32,10.28,36.87-25.69,36.87-25.69,9.89-9.4,42.53-30.82c18.26-12,17.79-8.22,34.67-18,10.47-6.06,10-7.7,10-7.7l21.55-23.53s1.87-4.73,25-7.29.08,2.85,42.53.2c17.72-1.1,23.11-13.05,23.11-13.05l21.57-23.11s10.38-7.71,15.54-15.41,33.1-12,33.1-12,30.35-3.41,41.19-6.62c31.46-9.38,48.95,31.46,73.44,34l14.31-2.57s48.51,5.14,48.51,15.41,0,10.27,15.41,23.32A31.5,31.5,0,0,1,1284,631.6Z" style="fill:url(#linear-gradient-2)"/><path d="M1284,630.29v-2.41l-.08,0a3.47,3.47,0,0,0-.46-.13c-8.45-2.41-9.94,1.39-10.27,3.47h-.72c-.26-.64-.59-1.56-1.08-2.82,1-1.11,2.29-2.44,2-3.73-.51-2.44-3.1-1.51-4.23-1a6.94,6.94,0,0,0-.72-.88l-.52-4.31a1.91,1.91,0,0,0-.07-.28,5.79,5.79,0,0,0-1.52-4,2.92,2.92,0,0,0-.92-1,1,1,0,0,0-.7-.18c-5-2.52-13.32,1-5-3.78a25.46,25.46,0,0,1,12.43-3.39.93.93,0,0,1-.21-.05L1258.37,597s12.2-1.56,5.42-7.14,6.78-5.6,0-5.6-10.17,6.37-6.78,0l3.39-6.37s4.06-13.87-.69-10.89-1.34-1-4.73,3l-6.11-3.39s.08-2.7.41-5.63c.85-7.6-4-3.59-5.32-3.72-2.41-.21-2.56-4-2.56-4s.66-8.32-2-6.78c-1.62.95-2.55,5.34-2.55,5.34l-.61,5.47s-4.16-2.46-4.86.7,7.78,6.55.34,6.55-8.68-3.32-8.68-3.32l1.33,9.56,5.45,4-8.84,1.59-8.81,1.57,8.14,4s4.76,7.16.67,7.16-7.44-4-8.81-1.59,1.37,10.33,1.37,10.33l2.72,5.57s-1.62.31-3.6.87c-1.33-6.11-3.39-3.18-4.54-.61,1.92-6.35-1.11-3.16-3.42-4-1.28-.41-5.57,2.52-9.29,5.32a21.36,21.36,0,0,0,.3-3.08c.8-12.74-23.08-3.55-9.55-10.15a34.27,34.27,0,0,1,14.59-3.34,1,1,0,0,0-.26,0l-8.11-4.49.38-.41c1.59-1.75-.77-1.75-3.52-1.31l-4.67-2.55s13.2-1.49,7.24-6.52l4.13-3.21h-7.26c-.52-3,8.73-3,2.26-3-8,0-11.94,6.4-8,0l4-6.37s4.77-13.87-.8-10.89-1.59-1-5.57,2.93l-7.17-3.34s.13-2.72.52-5.65c1-7.57-4.68-3.57-6.27-3.7l-1.23-4.67,3.39-1.26s2.64.54,4.21-2.62c1-2.08-4.67-2.34-9.27-2.36v0l6.65-2.39,11,2.34.77-3.75c.79-3.72-12.71-5.8-12.71-5.8l3.18-5.58s3.18-8,1.59-10.32S1169.75,505,1165,505s.8-7.14.8-7.14l9.55-4L1165,492.24l-10.35-1.57,6.37-4,1.59-9.53s-1.41,3.32-10.16,3.32,1.15-3.39.36-6.55-5.68-.72-5.68-.72l-.74-5.45s-1.08-4.36-3-5.34c-3.06-1.54-2.26,6.78-2.26,6.78s-.21,3.78-3,4c-1.6.13-7.25-3.9-6.24,3.73.38,2.9.48,5.62.48,5.62l-7.16,3.37c-4-4,0,0-5.57-2.93s-.8,10.89-.8,10.89l4,6.37c4,6.37,0,0-8,0s8,0,0,5.57,6.37,7.17,6.37,7.17l-15.9,8.76a2.21,2.21,0,0,0-.25,0,33.86,33.86,0,0,1,14.56,3.36c9.78,4.81,0,1.29-5.86,3.8a1.59,1.59,0,0,0-.82.18,3.38,3.38,0,0,0-1.08,1,5.37,5.37,0,0,0-1.77,4,1.36,1.36,0,0,0-.1.31l-.59,4.32a3.5,3.5,0,0,0-.83.87c-1.36-.57-4.39-1.47-5,1-.33,1.29,1.11,2.62,2.34,3.73-.57,1.23-1,2.18-1.26,2.82h-.85c-.41-2.1-2.15-5.9-12-3.46-12.63,3-1,2,2.46,2.95l.21,1.36a18,18,0,0,1-3.47,1.59c-9.5,3.47-2.36,3.52,4.24,3.09l.13.69,6.37,4-10.33,1.59L1081,560.53l9.55,4,.26.38h-8.63l4.77,4.57,2.21,2c-3.8-.82-6.86-3.36-8.16-1.31a3.39,3.39,0,0,0-.47,2.06c-1.79,1.84-3.93,4.54-3.93,6.85,0,2.47,4.27,3.57,7.5,4.11l1.67,2.88s-13.53,2.05-12.74,5.78l.8,3.77,8.47.54c-.53,2.06-1.51,4-3.31,4.4,0,0,0-4-9.53-1.6s.8,5.47.8,5.47h-4.78l-10.37,3.29s3,3.42-1.75,5a19.42,19.42,0,0,0-7.65,4.8s5.42,3,16.59,5.34-8,5.17-8,5.17h6.4l4,2.8-3.67,5.8h-.75l.52.41a.76.76,0,0,1-.08.16c-1.88,3-1.11,1.77,1.28.77l3.11,2.44,1.41,8.47c-2.51-.36-4.52-.23-3,1.39,2.74,3,7.78,3.39,9.19,3.44l-10,1.52-10.32,1.59,9.52,4s2.29,2.9,2.7,5.06c-4.73.13-3.29.82-.28,1.54a1.94,1.94,0,0,1-1.62.57c-4.78,0-8.73-4-10.32-1.6a.55.55,0,0,1,0,.13.93.93,0,0,0-.75,0c-2,.69-4.67-1.78-3.88,2.15h-.49c-.89-1.33-2-2-2.87.13-3.34.18-5.88.59-5.88.59l4.88,3.19c-.57,2.62-1,4.55-1.29,5.93a5,5,0,0,1-3.59-.69c-3.19-2.39-4-1.59-9.56,7.16a42,42,0,0,1,4.37.62v1.59l8.63.72c.26.11.49.21.74.34l-2.08,2.51a83.54,83.54,0,0,0-11.66-.18c-16.4.77,7.86-.72-7.9,5.68l-3.27-.49-9.73-1.46,6-3.67.13-.67c6.22.41,12.95.38,4-2.83a17,17,0,0,1-3.29-1.46l.21-1.23c3.23-.85,14.22.07,2.33-2.73-9.32-2.21-11,1.26-11.35,3.19h-.79c-.28-.59-.64-1.44-1.21-2.6,1.18-1,2.52-2.23,2.24-3.44-.6-2.23-3.42-1.41-4.7-.9a5.33,5.33,0,0,0-.77-.82l-.6-4,0-.26a5,5,0,0,0-1.69-3.64,2.9,2.9,0,0,0-1-1,1.41,1.41,0,0,0-.77-.15c-5.52-2.32-14.71.89-5.52-3.47a32.44,32.44,0,0,1,13.71-3.11c-.07,0-.15,0-.2,0l-15-8s13.48-1.46,6-6.58,7.5-5.08,0-5.08-11.22,5.83-7.47,0l3.75-5.86s4.49-12.74-.77-10-1.49-1-5.24,2.69l-6.73-3.08s.11-2.49.44-5.16c.95-7-4.37-3.29-5.86-3.42-2.67-.18-2.85-3.7-2.85-3.7s.75-7.62-2.15-6.21c-1.77.9-2.8,4.88-2.8,4.88l-.7,5s-4.59-2.26-5.34.67,8.58,6,.36,6-9.6-3.06-9.6-3.06l1.49,8.76,6,3.68-9.74,1.46-9.75,1.46,9,3.68s5.27,6.54.77,6.54-8.24-3.64-9.75-1.46,1.51,9.48,1.51,9.48l3,5.11s-12.74,1.9-12,5.34l.75,3.44,10.35-2.13,6.26,2.19v0c-4.34,0-9.68.26-8.73,2.16,1.47,2.93,4,2.44,4,2.44,1.44.54,2.47.9,3.19,1.15l-1.19,4.29c-1.49.11-6.83-3.57-5.88,3.39.39,2.68.47,5.19.47,5.19l-6.73,3.06c-3.75-3.65,0,0-5.24-2.7s-.77,10-.77,10l3.75,5.86c3.75,5.85,0,0-7.48,0-6.11,0,2.62,0,2.11,2.74h-6.83l3.9,3c-5.62,4.62,6.81,6,6.81,6L925.51,717c-2.6-.41-4.83-.41-3.32,1.18a4.79,4.79,0,0,0,.36.41l-7.62,4.11a.92.92,0,0,0-.26.05,32.89,32.89,0,0,1,13.74,3.08c12.74,6.07-9.76-2.39-9,9.3a25.67,25.67,0,0,0,.26,2.83c-3.5-2.57-7.53-5.27-8.73-4.88-2.19.72-5-2.19-3.24,3.64-1.08-2.38-3-5.08-4.29.67-.49,2.29-.87,4.06-1.15,5.45,0,0,0,0-.11,0-9.42,2.24-4.49,2.11-.43,2.39l-.16.69a19.83,19.83,0,0,0-6,.13c-1.18.29-1.9.83-1.9,1.67v4.39l.46.06,8.53.69-.85,1-4.39,5.19a2.63,2.63,0,0,0,.15,3.31h-4.41l4.49,4.19,6.73,5.86c6.75,5.88-6.6-.31-6.6-.31s-6,.23-3.49,2.95l4.1,4.39,6.78,2.42,2.21.77,6.76-1.6c.25.42.56.88.89,1.42-5.41,1.46-2.25,1.51,1.11,1.72,0,0,.05.1.08.13.51.77.87,1.33,1.13,1.74l-.34.59a17.29,17.29,0,0,0-8.29-2.33c-7.47,0,7.5,0,0,5.08-1.57,1.08-2.21,2-2.26,2.75a1.7,1.7,0,0,0,0,.41,45.58,45.58,0,0,0-5.14.31l-7.47-6.57s0,8-3.75,8.75c0,0,0-3.67-9-1.49s.75,5,.75,5h-4.5l-8.06,2.52-.31.1-1.36.41c-4.49,1.49,7.17,7,7.17,7s-10.51,2.34,0,4.55-7.94,7.06-7.94,7.06h6l3.75,2.55-3.75,5.85c-3.39,5.29,2.47-3.85,10.45,2.08-2.87,1.41-1,1.83,2.08,1.85l.41.41c1.57,1.78,2.44,2.88,2.93,3.52-.44-1.08-.64-3.05,2.21-4.18,1.62-.13,3.13-.24,4.31-.39l.18.08c.46.19.82.35,1.13.46h-.07c-7.43,1.82-2.08,4,0,4.78a2.19,2.19,0,0,0-.2.25h-3.57l-.21.08c-.31-.08-.64-.13-1-.2a4.8,4.8,0,0,0-2.36-.08s0,0,0,0A1.83,1.83,0,0,0,888,839l-4.88,1.51s-3,.72-7.49,2.21a7.48,7.48,0,0,0-5.24,5.09s2.33,1.13,6,2.54c-1.67,1.7-3.57,4.11-3.57,6.19,0,3.65,10.47,4.11,10.47,4.11l2.62,1v4.26s-11.45.72-13.68-4.82c-2-5-16.85-3.37-19.75-3a2.66,2.66,0,0,0-.41.08H852l9.73,6.32s-6.73,3.64-9.73,1.46c-11.65,6.12-44.46,18.27-82.46,17.87-47.5-.5-387.5,0-411.5,0-19.2,0-42.08-27.07-51.12-40.6-.77-2.11-1.7-1.46-2.47-.1H304c.67-3.93-1.57-1.49-3.29-2.19a1,1,0,0,0-.64,0s-.05-.08-.05-.1c-1.36-2.39-4.75,1.59-8.81,1.59a1.59,1.59,0,0,1-1.39-.57c2.6-.74,3.8-1.43-.23-1.56a17.39,17.39,0,0,1,2.29-5l8.14-4-8.81-1.56-8.5-1.55c1.21-.05,5.5-.46,7.81-3.44,1.28-1.62-.44-1.72-2.6-1.36l1.21-8.5,2.67-2.44c2,1,2.67,2.23,1.08-.75a.35.35,0,0,0-.08-.15l.44-.41h-.64l-3.11-5.8,3.39-2.8h5.45s-16.31-2.8-6.81-5.17S305.67,792,305.67,792a16.82,16.82,0,0,0-6.52-4.8c-4.09-1.6-1.49-5-1.49-5l-8.84-3.28h-4.08s8.83-3.09.69-5.48-8.14,1.6-8.14,1.6c-1.51-.34-2.36-2.31-2.82-4.37l7.21-.56.7-3.75c.67-3.73-10.86-5.78-10.86-5.78l1.43-2.88c2.75-.54,6.37-1.64,6.37-4.11s-1.82-5-3.34-6.88a4.31,4.31,0,0,0-.38-2.06c-1.13-2-3.75.52-7,1.34l1.87-2,4.06-4.57h-7.34l.23-.39,8.14-4-8.84-1.59L258,731.8l5.41-4,.13-.72c5.63.43,11.71.41,3.62-3.08a15.21,15.21,0,0,1-3-1.6l.18-1.33c3-1,12.9.07,2.11-3-8.42-2.39-9.91,1.38-10.25,3.47h-.74c-.23-.65-.59-1.55-1.08-2.8l0,0c1-1.13,2.25-2.42,2-3.72-.51-2.44-3.08-1.52-4.23-1a6.68,6.68,0,0,0-.67-.86l0,0-.54-4.31a1.2,1.2,0,0,0,0-.29,6.07,6.07,0,0,0-1.51-4,3.5,3.5,0,0,0-.93-1,1.41,1.41,0,0,0-.72-.17c-5-2.52-13.32,1-5-3.78a25.3,25.3,0,0,1,12.4-3.37.48.48,0,0,0-.2-.07l-13.56-8.73s12.2-1.6,5.42-7.17,6.78-5.57,0-5.57-10.17,6.37-6.78,0l3.39-6.37s4.08-13.9-.67-10.89-1.36-1-4.75,2.92L231.84,657s.1-2.72.41-5.65c.87-7.6-4-3.57-5.32-3.73-2.41-.2-2.56-4-2.56-4s.66-8.34-2-6.8c-1.59,1-2.51,5.34-2.51,5.34l-.64,5.47s-4.16-2.47-4.83.72,7.78,6.52.31,6.52-8.68-3.31-8.68-3.31l1.36,9.55,5.42,4-17.62,3.18,8.11,4s4.76,7.17.7,7.17-7.48-4-8.81-1.59,1.33,10.35,1.33,10.35l2.73,5.57s-6.19,1.1-9.22,3.16l-.54-.15-.36-.13L179,693.48h-5.64s12.22-3.55.92-6.32S163,689,163,689c-4.7-.92-4.7-11.09-4.7-11.09l-9.42,8.37a53.73,53.73,0,0,0-6.45-.41,2.92,2.92,0,0,0,.08-.54c-.08-.95-.9-2.11-2.88-3.47-9.4-6.47,9.43-6.47,0-6.47a21.9,21.9,0,0,0-10.4,3l-.41-.74c.31-.51.77-1.23,1.41-2.21,0-.08.05-.13.08-.15,4.24-.24,8.19-.34,1.39-2.19.43-.69.82-1.23,1.13-1.8l8.5,2.06,2.77-1,8.55-3,5.14-5.58c3.18-3.44-4.39-3.72-4.39-3.72s-16.77,7.81-8.3.38l8.48-7.39,5.65-5.29h-5.55a3.39,3.39,0,0,0,.18-4.22l-5.52-6.54-1.06-1.29,10.71-.87.59,0v-5.55c0-1.08-.92-1.77-2.38-2.13a25.13,25.13,0,0,0-7.55-.16c-.06-.23-.13-.54-.18-.85,5.11-.35,11.3-.17-.54-3a.3.3,0,0,1-.13,0c-.36-1.77-.85-4-1.47-6.91-1.56-7.27-4-3.85-5.39-.82,2.29-7.37-1.33-3.7-4.06-4.6-1.51-.49-6.6,2.93-11,6.19a26.79,26.79,0,0,0,.34-3.57c1-14.79-27.3-4.11-11.3-11.76a40.59,40.59,0,0,1,17.28-3.88.73.73,0,0,0-.33-.08l-9.61-5.21a3.78,3.78,0,0,0,.49-.49c1.87-2-.92-2-4.18-1.52L113,587.35s15.64-1.72,8.58-7.58L126.5,576h-8.6c-.62-3.49,10.35-3.49,2.67-3.49-9.43,0-14.13,7.45-9.43,0l4.73-7.37s5.65-16.08-1-12.66-1.88-1.21-6.6,3.41L99.84,552s.13-3.16.62-6.55c1.18-8.81-5.55-4.16-7.42-4.26l-1.47-5.44c.9-.31,2.19-.77,4-1.47,0,0,3.13.62,5-3.08,1.21-2.39-5.52-2.72-11-2.75v0l7.86-2.78,13,2.7.93-4.34c.95-4.34-15.05-6.73-15.05-6.73l3.75-6.47s3.77-9.25,1.9-12-6.6,1.85-12.25,1.85,1-8.33,1-8.33l11.3-4.62L89.78,485.9l-12.25-1.85,7.52-4.63L87,468.33s-1.67,3.85-12.07,3.85,1.39-3.9.44-7.6-6.7-.82-6.7-.82l-.88-6.35s-1.31-5.08-3.51-6.19c-3.65-1.8-2.73,7.89-2.73,7.89s-.2,4.41-3.57,4.65c-1.87.15-8.57-4.55-7.37,4.31.44,3.39.57,6.53.57,6.53l-8.48,3.9c-4.72-4.62,0,0-6.6-3.42s-.95,12.64-.95,12.64l4.73,7.4c4.7,7.39,0,0-9.42,0s9.42,0,0,6.44,7.52,8.35,7.52,8.35L19.11,520.06a1.33,1.33,0,0,1-.29.07A40.55,40.55,0,0,1,36.05,524c11.59,5.55,0,1.49-6.93,4.42a1.73,1.73,0,0,0-1,.2,3.79,3.79,0,0,0-1.29,1.21,6.29,6.29,0,0,0-2.1,4.62,2.89,2.89,0,0,0-.11.34l-.72,5a6.23,6.23,0,0,0-1,1c-1.59-.64-5.19-1.69-5.91,1.16-.38,1.51,1.31,3.05,2.8,4.34-.69,1.44-1.16,2.51-1.51,3.26h-1c-.46-2.44-2.54-6.83-14.25-4-1.21.28-2.23.54-3.08.77v2.08A36.73,36.73,0,0,1,6,549l.26,1.56a23.13,23.13,0,0,1-4.14,1.83c-.82.31-1.51.56-2.13.82v3a70,70,0,0,0,7.16-.2l.16.85,7.55,4.59L2.62,563.28,0,563.8v5.36l1.67.7.31.43H0v36.22l8.27-.59-.57,2.65c-3,.07-5.57.41-5.57.41L0,607V2777.74H1284V682.2a30.77,30.77,0,0,0-3.88-.33l-.41-2.26,4.29.38V643l-.21,0-8.8-1.59,5.41-4,.11-.69c1.18.1,2.41.15,3.49.15v-3.29a15.1,15.1,0,0,1-2.82-1.54l.17-1.33A9.67,9.67,0,0,1,1284,630.29Zm-218.54,10.25,1.49,1.16A5.89,5.89,0,0,1,1065.46,640.54ZM906.66,762.28l3.75-2.74,1.15-.85c-1.13-3.06-3.7-1.57-5-.49a9.55,9.55,0,0,0-.85.77l-5,2.52a4.44,4.44,0,0,1,0,.79ZM288.85,815.2a5.49,5.49,0,0,1-1.26,1.13ZM143.5,643.57s-.41-.41-1.08-1c-1.69-1.34-4.93-3.21-6.34.59l1.49,1.08,4.7,3.49h7.55a5.62,5.62,0,0,1,0-1Zm33,134.69.68-.14.34-.07.34-.07c0-.41-.05-.88-.08-1.49-.15-2.7.67-4.42,1.93-5.5a40.5,40.5,0,0,1-8,1.23l-3.29,1.19v.9a3,3,0,0,0,1.72,0C171,773.92,173.78,776,176.5,778.26Zm8.35-11.2a3.07,3.07,0,0,1-1.5,2.37,22.86,22.86,0,0,1,4.18-.28c2.46,0,3.21,0-1.61-2.73a14.23,14.23,0,0,0-1.28-.67A4.65,4.65,0,0,1,184.85,767.06Zm-1.08-22.6c.46-3-7.42-3-1.93-3,6.78,0,10.17,6.42,6.78,0l-3.39-6.35s-.21-.74-.46-1.8c-2.16-1.18-7.22-3.57-13.28,1,3.65,1.77,1.36,2.31-2.59,2.36-.16.13-.34.34-.52.52-2,2.21-3,3.64-3.69,4.47.56-1.39.82-3.88-2.75-5.3-2.06-.15-4-.33-5.45-.46-.66.28-1.18.52-1.64.7h.1c9.32,2.31,2.62,5.08,0,6a2.27,2.27,0,0,1,.25.31h4.5l.23.1,1.21-.28a6.33,6.33,0,0,1,3-.08c0,.05,0,.05,0,0a2.28,2.28,0,0,1,1.64,2.16l6.14,1.95s3.24.8,8.17,2.34a4.67,4.67,0,0,1,1-1.41l-3.52-3.24Zm12.48-38.6c-.85-2.06,4-2.32,7.91-2.34v0l-5.68-2.37-9.37,2.34-.18-.9a64,64,0,0,1-6.68,3.78s13.18,3,0,5.75,9.94,9,9.94,9h-7.53l-4.72,3.18,4.26,6.7c-.77-3.8-1.26-8.55,1.72-6.72,2.38,1.47,2.72,1.22,2.89,1.09s.17-.13,1.86,1.86l6.09-3.37s-.08-2.74-.41-5.65c-.67-5.87,2.05-4.81,4-4.08a4.07,4.07,0,0,0,1.35.39l1.08-4.71c-.66-.25-1.59-.64-2.9-1.23C199.84,708.5,197.58,709,196.25,705.86Zm66.87,66.52a30.87,30.87,0,0,1,4,.36l1.88-2.06-6.29-.56Zm756.66-65.32a20.58,20.58,0,0,0,3.3-1.06c.47-.19.92-.36,1.35-.5a7.37,7.37,0,0,1-.31-2.34l-2.26,2.11Zm1.67-7.57-3,1.2-.07.12-.16.22h5.31A4.08,4.08,0,0,0,1021.45,699.49Zm-7.76,31.79c2.42.06,4.42.31,4.42.31l2.08-1.85-7-.51Zm37.6,9.89a.89.89,0,0,0-.1.23l.38-.28Zm5.49-20.6a7.26,7.26,0,0,1,2.49-1.43c.57-.18,1.08-.34,1.57-.47-1.32-.32-2.72-.75-4.27-1.24h0l-.22-.07c-6.68-2.23-3-3.44,3.87-4.08a1.48,1.48,0,0,0,0-.19h0s0-.06,0-.1a.44.44,0,0,1,0-.1l-3.55-4.93h-7.16s-18.29,5.58-15.1,0c1.59-2.81,1-3.39.68-3.68-.09-.09-.15-.16-.12-.25a28.52,28.52,0,0,1-7.19,3.32l0,.08s0,.07,0,.11a1.55,1.55,0,0,1,0,.22c1.7,1.69,3.7,4.18,3.7,6.29,0,2.26-4,3.29-7,3.78l-1.6,2.64s12.74,1.88,12,5.32l-.75,3.44-8,.51c.52,1.88,1.44,3.68,3.11,4,0,0,0-3.67,9-1.49a14.6,14.6,0,0,1,1.67.49h4.39l10.37,3.57-5.57-8.58a17,17,0,0,1-4.8-8.14C1043.4,716.28,1050.75,718.36,1056.78,720.57ZM1091,598.11s2.13-.28,4.7-.33l.47-2.26-7.4.54Zm114.38,30.41,4,3h4.39c0-.47-.06-1-.1-1.6l0-.35-3.21-1.67s-.36-.37-.9-.85c-1.44-1.16-4.16-2.78-5.37.54ZM1215,623a6.27,6.27,0,0,1,2.3.57,4.32,4.32,0,0,0,1.38.38l.74-3.24-5.91.49.9,1.11Zm-.33-9.38a25.89,25.89,0,0,1,6.5-.64l-1.47-.61c-.38.29-2.12.38-4,.47h0l-1.19.07C1214.59,613.16,1214.64,613.42,1214.69,613.62Z" style="fill:#3fa467;fill-rule:evenodd"/><path d="M1065.46,640.54l1.49,1.16A5.89,5.89,0,0,1,1065.46,640.54ZM906.66,762.28l3.75-2.74,1.15-.85c-1.13-3.06-3.7-1.57-5-.49a9.55,9.55,0,0,0-.85.77l-5,2.52a4.44,4.44,0,0,1,0,.79ZM288.85,815.2a5.49,5.49,0,0,1-1.26,1.13ZM143.5,643.57s-.41-.41-1.08-1c-1.69-1.34-4.93-3.21-6.34.59l1.49,1.08,4.7,3.49h7.55a5.62,5.62,0,0,1,0-1ZM263.12,772.38a30.87,30.87,0,0,1,4,.36l1.88-2.06-6.29-.56Zm788.17-31.21a.89.89,0,0,0-.1.23l.38-.28ZM1091,598.11s2.13-.28,4.7-.33l.47-2.26-7.4.54Z" style="fill:#3fa467;fill-rule:evenodd"/></svg>