<svg id="Layer_1" data-name="Layer 1" xmlns="http://www.w3.org/2000/svg" viewBox="0 0 365 557.37"><path d="M309.5,557.37H55.5V230.23c0-20.81,8.55-36.74,24.07-44.83a107.92,107.92,0,0,1-6.28-36.48c0-29.59,17.77-57.51,51.38-80.72a243.34,243.34,0,0,1,54.64-27.76l3.2-1.07,3.25,1.11A242.79,242.79,0,0,1,240.33,68.2c33.61,23.22,51.38,51.13,51.38,80.73a108.26,108.26,0,0,1-6.28,36.48h0c15.52,8.09,24.07,24,24.07,44.83Z" style="opacity:0.8"/><path d="M309,557H55V229.9c0-20.82,8.55-36.74,24.07-44.84a107.82,107.82,0,0,1-6.28-36.47c0-29.6,17.77-57.51,51.38-80.73a243.06,243.06,0,0,1,54.64-27.75L182,39l3.25,1.1a243.07,243.07,0,0,1,54.57,27.73c33.61,23.21,51.38,51.13,51.38,80.73a108.16,108.16,0,0,1-6.28,36.47h0c15.52,8.1,24.07,24,24.07,44.84ZM67,545H297V229.91c0-16.36-6.09-28.19-17.62-34.2l-9.26-4.83,3.51-9.84a96.42,96.42,0,0,0,5.58-32.44c0-25.85-15.54-49.68-46.2-70.85a230.54,230.54,0,0,0-51-26,230.37,230.37,0,0,0-51,26c-30.66,21.17-46.2,45-46.2,70.85A95.81,95.81,0,0,0,90.37,181l3.52,9.84-9.27,4.84C73.09,201.72,67,213.54,67,229.9Z" style="fill:#111213"/><path d="M306.85,12h-13.7L300,18.85Zm-42.14,0h20.18L274.72,22.17l-10-10Zm-24.59,0h20.17v.15l-10,10Zm-8.27,0h-13.7L225,18.85Zm-42.14,0h20.18L199.72,22.17l-10-10Zm-24.59,0h20.17v.15l-10,10Zm-8.27,0h-13.7L150,18.85Zm-42.14,0h20.18L124.72,22.17l-10-10ZM90.12,12h20.17v.15l-10,10Zm-8.27,0H68.15L75,18.85ZM39.71,12H59.89L49.72,22.16l-10-10Zm-23,1.54A10,10,0,0,1,22,12H35.29v.15l-10,10ZM12,35.29V22a9.91,9.91,0,0,1,1.55-5.34l8.62,8.62-10,10Zm0,24.59V39.7h.15l10,10Zm0,8.27v13.7L18.85,75Zm0,42.14V90.11l10.17,10.17-10,10Zm0,24.59V114.7h.15l10,10Zm0,8.27v13.7L18.85,150Zm0,42.14V165.11l10.17,10.17-10,10Zm0,24.59V189.7h.15l10,10Zm0,8.27v13.7L18.85,225Zm0,42.14V240.11l10.17,10.17-10,10Zm0,24.59V264.7h.15l10,10Zm0,8.27v13.7L18.85,300Zm0,42.14V315.11l10.17,10.17-10,10Zm0,24.59V339.7h.15l10,10Zm0,8.27v13.7L18.85,375Zm0,42.14V390.11l10.17,10.17-10,10Zm0,24.59V414.7h.15l10,10Zm0,8.27v13.7L18.85,450Zm0,42.14V465.11l10.17,10.17-10,10Zm0,24.59V489.7h.15l10,10Zm0,8.27v13.7L18.85,525Zm0,22V545h4.89ZM27.44,545H23.12l-9-9,8.78-8.77H35.29v9.94Zm6.24,0h7.64l-3.82-3.82Zm18.2,0H47.56l-7.85-7.85v-9.94H52.12L55,530.09V519.92l-2.88,2.88H39.71v-9.95l10-10L55,508.12v-6.24l-2.16-2.16L55,497.56v-6.24l-5.28,5.28-9.1-9.1,9.1-9.1L55,483.68v-6.24l-2.16-2.16L55,473.12v-6.23l-5.28,5.27-10-10v-9.94H52.12L55,455.09V444.92l-2.88,2.88H39.71v-9.95l10-10L55,433.12v-6.24l-2.16-2.16L55,422.56v-6.24l-5.28,5.28-9.1-9.1,9.1-9.1L55,408.68v-6.24l-2.16-2.16L55,398.12v-6.23l-5.28,5.27-10-10v-9.94H52.12L55,380.09V369.92l-2.88,2.88H39.71v-9.95l10-10L55,358.12v-6.24l-2.16-2.16L55,347.56v-6.24l-5.28,5.28-9.1-9.1,9.1-9.1L55,333.68v-6.24l-2.16-2.16L55,323.12v-6.23l-5.28,5.27-10-10v-9.94H52.12L55,305.09V294.92l-2.88,2.88H39.71v-9.95l10-10L55,283.12v-6.24l-2.16-2.16L55,272.56v-6.24l-5.28,5.28-9.1-9.1,9.1-9.1L55,258.68v-6.24l-2.16-2.16L55,248.12v-6.24l-5.28,5.28-10-10v-9.94H52.12L55,230.09v-.19a68.2,68.2,0,0,1,.83-10.81l-3.71,3.71H39.71v-10l10-10,8,8c.5-1.56,1.07-3.07,1.69-4.53l-6.61-6.63,10-10h9.09a43.38,43.38,0,0,1,6.7-4.42H77.21v-5.92a105.29,105.29,0,0,1-2.62-10.93L56.15,150l18.63-18.63a77.07,77.07,0,0,1,2.42-8.18V114.7h3.59q1.09-2.24,2.31-4.41H77.21V97.88L86,89.1,92.89,96c.93-1.15,1.89-2.27,2.86-3.38L89.1,86l8.78-8.78h12.41v1.25q3.48-2.94,7.06-5.66h-2.64V62.86l10-10,8.88,8.88q2-1.21,3.91-2.34l-9.67-9.67,10-10h9.94V52.12h0l-3.35,3.35c2.66-1.44,5.26-2.78,7.75-4V39.7h9.94l4.93,4.93c1.61-.68,3.1-1.28,4.43-1.81l-5.32-5.32,9.1-9.1,9.1,9.1-1.75,1.75,2.56.87c.29.1,1,.34,2.08.73l.23-.23.49.49c2.32.85,5.91,2.23,10.37,4.13l-7.74-7.74,9.1-9.1,9.1,9.1-8.56,8.56q2.06.9,4.31,1.93l8.28-8.28h9.94V52.12h0l-3.32,3.32q2,1.08,4,2.22L225,56.15,230.89,62A190.37,190.37,0,0,1,252.2,77.2h8.09v7.17a113.64,113.64,0,0,1,19.63,24.23l3.9,3.9-1.14,1.14c.71,1.39,1.37,2.8,2,4.24l3.17-3.17h9.94v12.42L290,135q.5,2.69.8,5.43l9.23-9.23L318.85,150,300,168.85l-9.33-9.33c-.18,1.86-.41,3.7-.69,5.54l7.82,7.82v12.41h-9.95l-2.23-2.23c-.22.68-.45,1.34-.69,2a43.8,43.8,0,0,1,7.12,4.64h5.74v5.61a43.48,43.48,0,0,1,4.41,6.32V189.7h9.94l10,10L311,210.9l-8.18-8.19a49.77,49.77,0,0,1,4.06,10.3l12,12L309,234.85v6.24l2-2,11.17,11.18-10,10H309v4.41h3.14l10,10L311,285.9l-2-2v6.23l9.85,9.85L309,309.85v6.24l2-2,11.17,11.18-10,10H309v4.41h3.14l10,10L311,360.9l-2-2v6.23l9.85,9.85L309,384.85v6.24l2-2,11.17,11.18-10,10H309v4.41h3.14l10,10L311,435.9l-2-2v6.23l9.85,9.85L309,459.85v6.24l2-2,11.17,11.18-10,10H309v4.41h3.14l10,10L311,510.9l-2-2v6.23l9.85,9.85L309,534.85v6.24l2-2,5.9,5.9H55v-3.11Zm275.56,0h-4.32l-9-9,8.78-8.78h12.41v9.95Zm6.24,0h7.64l-3.82-3.82Zm18.2,0h-4.32l-7.85-7.85v-9.94h12.41l.88.88v15.79ZM353,506.12v15.79l-.88.88H339.71v-9.94l10-10Zm0-6.24v-.32l-.16.16Zm0-18.2v11.64l-3.28,3.28-9.1-9.1,9.1-9.1Zm0-6.24v-.32l-.16.16Zm0-22.35v15.79l-3.28,3.28-10-10v-9.94h12.41Zm0-22v15.79l-.88.88H339.71v-9.94l10-10Zm0-6.24v-.32l-.16.16Zm0-18.2v11.64l-3.28,3.28-9.1-9.1,9.1-9.1Zm0-6.24v-.32l-.16.16Zm0-22.35v15.79l-3.28,3.28-10-10v-9.94h12.41Zm0-22v15.79l-.88.88H339.71v-9.94l10-10Zm0-6.24v-.32l-.16.16Zm0-18.2v11.64l-3.28,3.28-9.1-9.1,9.1-9.1Zm0-6.24v-.32l-.16.16Zm0-22.35v15.79l-3.28,3.28-10-10v-9.94h12.41Zm0-22v15.79l-.88.88H339.71v-9.94l10-10Zm0-6.24v-.32l-.16.16Zm0-18.2v11.64l-3.28,3.28-9.1-9.1,9.1-9.1Zm0-6.24v-.32l-.16.16Zm0-22.35v15.79l-3.28,3.28-10-10v-9.94h12.41Zm0-22v15.79l-.88.88H339.71v-9.94l10-10Zm0-6.24v-.32l-.16.16Zm0-18.2v11.64l-3.28,3.28-9.1-9.1,9.1-9.1Zm0-6.24v-.32l-.16.16Zm0-22.35v15.79l-3.28,3.28-10-10v-9.94h12.41Zm0-22v15.79l-.88.88H339.71v-9.94l10-10Zm0-6.24v-.32l-.16.16Zm0-18.2v11.64l-3.28,3.28-9.1-9.1,9.1-9.1Zm0-6.24v-.32l-.16.16Zm0-22.35V93.88l-3.28,3.28-10-10V77.21h12.41Zm0-28.21v-.32l-.16.16Zm0-18.2V43.32l-3.28,3.28-9.1-9.1,9.1-9.1Zm0-6.24v-.32l-.16.16ZM315.12,12h20.17v.15l-10,10Zm24.59,0H343a10,10,0,0,1,9.62,7.27l-2.9,2.9-10-10ZM353,56.12V71.91l-.88.88H339.71V62.85l10-10Zm-27.72-3.28L314.1,64l8.78,8.77h12.41V62.85ZM311,60.9l11.18-11.18-10-10H302.2V52.12Zm14.3-32.5-9.1,9.1,9.1,9.1,9.1-9.1ZM337.5,40.62l-9.1,9.1,9.1,9.1,9.1-9.1Zm0-6.24,9.1-9.1-9.1-9.1-9.1,9.1ZM311,14.1l-8.78,8.78h0V35.29h9.94l10-10ZM100.28,52.84,89.1,64l8.78,8.77h12.41V62.85ZM86,60.9,97.16,49.72l-10-10H77.2V52.12Zm38.74-32.5-9.1,9.1,9.1,9.1,9.1-9.1ZM112.5,58.82l9.1-9.1-9.1-9.1-9.1,9.1ZM91.18,37.5l9.1,9.1,9.1-9.1-9.1-9.1Zm196.67,72.79h9.95V97.88L289,89.1l-11.18,11.18ZM264.71,87.15l10,10L285.9,86l-8.78-8.78H264.71ZM250.28,52.84,239.1,64l8.78,8.77h12.41V62.85ZM236,60.9l11.18-11.18-10-10H227.2V52.12Zm26.52-2.08,9.1-9.1-9.1-9.1-9.1,9.1ZM274.72,28.4l-9.1,9.1,9.1,9.1,9.1-9.1Zm-33.54,9.1,9.1,9.1,9.1-9.1-9.1-9.1Zm23.53,25.35v9.94h12.41L285.9,64,274.72,52.84Zm23.14-23.14-10,10L289,60.91l8.78-8.78V39.71Zm9.94-4.42V22.88L289,14.1,277.84,25.28l10,10Zm-35.29-.91,9.1-9.1-9.1-9.1-9.1,9.1ZM236,14.1l-8.78,8.78h0V35.29h9.94l10-10Zm-13.2,21.19V22.88L214,14.1,202.84,25.28l10,10Zm-35.29-.91,9.1-9.1-9.1-9.1-9.1,9.1ZM161,14.1l-8.78,8.78h0V35.29h9.94l10-10Zm-13.2,21.19V22.88L139,14.1,127.84,25.28l10,10Zm-35.29-.91,9.1-9.1-9.1-9.1-9.1,9.1ZM86,14.1l-8.78,8.78V35.29h9.94l10-10ZM46.6,49.72l-9.1-9.1-9.1,9.1,9.1,9.1ZM16.18,37.5l9.1,9.1,9.1-9.1-9.1-9.1Zm33.54-9.1-9.1,9.1,9.1,9.1,9.1-9.1Zm0,24.44-10,10V72.8H52.12L60.9,64ZM62.85,39.71l-10,10L64,60.91l8.78-8.78V39.71Zm9.94-4.42V22.88L64,14.1,52.84,25.28l10,10ZM37.5,34.38l9.1-9.1-9.1-9.1-9.1,9.1ZM25.28,52.84,14.1,64l8.78,8.77H35.3V62.85ZM75,56.15,56.15,75,75,93.85,93.85,75ZM64,89.1,52.84,100.28l10,10H72.8V97.88Zm-14.3,32.5,9.1-9.1-9.1-9.1-9.1,9.1Zm-10-34.45,10,10L60.9,86l-8.78-8.78H39.71ZM37.5,109.38l9.1-9.1-9.1-9.1-9.1,9.1ZM25.28,121.6l9.1-9.1-9.1-9.1-9.1,9.1Zm21.32,3.12-9.1-9.1-9.1,9.1,9.1,9.1Zm3.12,3.12-10,10v10H52.12L60.9,139Zm13.13-13.13-10,10L64,135.91l8.78-8.78V114.71ZM35.29,77.21H22.88L14.1,86,25.28,97.16l10-10Zm-10,50.63L14.1,139l8.78,8.77H35.29v-9.94ZM64,164.1,52.84,175.28l10,10H72.8V172.88Zm-14.3,32.5,9.1-9.1-9.1-9.1-9.1,9.1Zm-10-34.45,10,10L60.9,161l-8.78-8.78H39.71ZM37.5,184.38l9.1-9.1-9.1-9.1-9.1,9.1ZM25.28,196.6l9.1-9.1-9.1-9.1-9.1,9.1Zm21.32,3.12-9.1-9.1-9.1,9.1,9.1,9.1ZM35.29,152.21H22.88L14.1,161l11.18,11.18,10-10Zm-10,50.63L14.1,214l8.78,8.77H35.29v-9.94ZM37.5,259.38l9.1-9.1-9.1-9.1-9.1,9.1ZM25.28,271.6l9.1-9.1-9.1-9.1-9.1,9.1Zm21.32,3.12-9.1-9.1-9.1,9.1,9.1,9.1ZM35.29,227.21H22.88L14.1,236l11.18,11.18,10-10Zm-10,50.63L14.1,289l8.78,8.77H35.29v-9.94ZM37.5,334.38l9.1-9.1-9.1-9.1-9.1,9.1ZM25.28,346.6l9.1-9.1-9.1-9.1-9.1,9.1Zm21.32,3.12-9.1-9.1-9.1,9.1,9.1,9.1ZM35.29,302.21H22.88L14.1,311l11.18,11.18,10-10Zm-10,50.63L14.1,364l8.78,8.77H35.29v-9.94ZM37.5,409.38l9.1-9.1-9.1-9.1-9.1,9.1ZM25.28,421.6l9.1-9.1-9.1-9.1-9.1,9.1Zm21.32,3.12-9.1-9.1-9.1,9.1,9.1,9.1ZM35.29,377.21H22.88L14.1,386l11.18,11.18,10-10Zm-10,50.63L14.1,439l8.78,8.77H35.29v-9.94ZM37.5,484.38l9.1-9.1-9.1-9.1-9.1,9.1ZM25.28,496.6l9.1-9.1-9.1-9.1-9.1,9.1Zm21.32,3.12-9.1-9.1-9.1,9.1,9.1,9.1ZM35.29,452.21H22.88L14.1,461l11.18,11.18,10-10Zm-10,50.63L14.1,514l8.78,8.77H35.29v-9.94Zm300,0L314.1,514l8.78,8.77h12.41v-9.94Zm0-24.44-9.1,9.1,9.1,9.1,9.1-9.1Zm12.22,12.22-9.1,9.1,9.1,9.1,9.1-9.1Zm-9.1-15.34,9.1,9.1,9.1-9.1-9.1-9.1Zm-3.12-3.12,10-10V452.2H322.88L314.1,461Zm0-44.32L314.1,439l8.78,8.77h12.41v-9.94Zm0-24.44-9.1,9.1,9.1,9.1,9.1-9.1Zm12.22,12.22-9.1,9.1,9.1,9.1,9.1-9.1Zm-9.1-15.34,9.1,9.1,9.1-9.1-9.1-9.1Zm-3.12-3.12,10-10V377.2H322.88L314.1,386Zm0-44.32L314.1,364l8.78,8.77h12.41v-9.94Zm0-24.44-9.1,9.1,9.1,9.1,9.1-9.1Zm12.22,12.22-9.1,9.1,9.1,9.1,9.1-9.1Zm-9.1-15.34,9.1,9.1,9.1-9.1-9.1-9.1Zm-3.12-3.12,10-10V302.2H322.88L314.1,311Zm0-44.32L314.1,289l8.78,8.77h12.41v-9.94Zm0-24.44-9.1,9.1,9.1,9.1,9.1-9.1Zm12.22,12.22-9.1,9.1,9.1,9.1,9.1-9.1Zm-9.1-15.34,9.1,9.1,9.1-9.1-9.1-9.1Zm-3.12-3.12,10-10v-10H322.88L314.1,236Zm0-44.32L314.1,214l8.78,8.77h12.41v-9.94Zm0-24.44-9.1,9.1,9.1,9.1,9.1-9.1Zm12.22,12.22-9.1,9.1,9.1,9.1,9.1-9.1Zm-9.1-15.34,9.1,9.1,9.1-9.1-9.1-9.1Zm-3.12-3.12,10-10v-10H322.88L314.1,161Zm-13.13,13.13,10-10L311,164.1l-8.78,8.78v12.41Zm13.13-57.45L314.1,139l8.78,8.77h12.41v-9.94ZM311,135.9l11.18-11.18-10-10H302.2v12.42Zm14.3-32.5-9.1,9.1,9.1,9.1,9.1-9.1Zm12.22,12.22-9.1,9.1,9.1,9.1,9.1-9.1Zm-9.1-15.34,9.1,9.1,9.1-9.1-9.1-9.1Zm-3.12-3.12,10-10v-10H322.88L314.1,86Zm-13.13,13.13,10-10L311,89.1l-8.78,8.78v12.41ZM281.15,75,300,93.85,318.85,75,300,56.15ZM365,66.15V557H0V22a22.53,22.53,0,0,1,.26-3.41A22,22,0,0,1,18.59.26,22.53,22.53,0,0,1,22,0H343a22,22,0,0,1,22,22V66.15Z" style="fill:#fff;fill-rule:evenodd;opacity:0.20000000298023224;isolation:isolate"/></svg>