<svg id="Layer_1" data-name="Layer 1" xmlns="http://www.w3.org/2000/svg" xmlns:xlink="http://www.w3.org/1999/xlink" viewBox="0 0 1200 850"><defs><linearGradient id="linear-gradient" x1="600" y1="-494.36" x2="600" y2="1081.09" gradientUnits="userSpaceOnUse"><stop offset="0" stop-color="#201874"/><stop offset="0.39" stop-color="#7431b8"/><stop offset="0.89" stop-color="#ffda3f"/></linearGradient><linearGradient id="linear-gradient-2" x1="812.55" y1="313.26" x2="812.55" y2="942.26" gradientUnits="userSpaceOnUse"><stop offset="0.34" stop-color="#201874"/><stop offset="1" stop-color="#cc928b"/></linearGradient><linearGradient id="linear-gradient-3" x1="249.45" y1="1044.44" x2="476.8" y2="332.06" gradientUnits="userSpaceOnUse"><stop offset="0.41" stop-color="#201874"/><stop offset="1" stop-color="#cc928b"/></linearGradient><linearGradient id="linear-gradient-4" x1="766.26" y1="947.93" x2="630.6" y2="322.38" xlink:href="#linear-gradient-2"/><linearGradient id="linear-gradient-5" x1="319.56" y1="281.14" x2="319.56" y2="1016.34" gradientUnits="userSpaceOnUse"><stop offset="0" stop-color="#66226a"/><stop offset="0.38" stop-color="#201874"/><stop offset="0.93" stop-color="#06003a"/></linearGradient><linearGradient id="linear-gradient-6" x1="286.26" y1="527.85" x2="286.26" y2="840.23" gradientUnits="userSpaceOnUse"><stop offset="0.09" stop-color="#201874"/><stop offset="0.98" stop-color="#06003a"/></linearGradient><linearGradient id="linear-gradient-7" x1="745.68" y1="418.97" x2="907.09" y2="850.53" xlink:href="#linear-gradient-6"/></defs><rect width="1200" height="850" fill="url(#linear-gradient)"/><path d="M1200,545.19,1170.2,524,1136,510.64l-21.14,1.85-27.44,15.42-55.79,17.28H993.05l-8.74,3.7-24.68,21.66S947,583.92,929,587.14s-202.49,88.39-202.49,88.39L698.67,701v23.86s-18,5.74-25.2,9.56S624.88,758,624.88,758L425.1,850H1200Z" fill="url(#linear-gradient-2)"/><path d="M0,500.64l34.4,17.67,23.39-8.83h32.4l14.4,8.83h21.59s30.6,2.52,36,0,21.6,1.12,21.6,1.12,9,16.54,14.39,24.11S227,561.21,227,561.21l25.8,14.51h21l12.5,15.77s23.3-5,33.3,0,47.79,44.9,53.19,45.16,28.8,10.49,37.8,16.73,50.39,18.44,50.39,18.44H572.52l66.6,47.7,21.08,27.74L734.5,850H0Z" fill="url(#linear-gradient-3)"/><path d="M252.92,850l14.4-17.65,19.1-9.57,18.1-9.46,15.2-7.11,17.19-19.27,7.2-13.86,8.4-8.85h15.6l13.35-14.82H402.9l9.6-9.46,19.2-15.68,49.19-24.74,18-20.68,18-11.09,14.4-11.09,28.79-31.51,12.6-11.84h31.8l16.8-7.1,12-9.46,13.2-6.52,42-23.54h13.2l18-4.23,38.4-26.07,24-11,16.8,14.6,16.8-4.73,11.3-9.87,19.9,6.32,18,1.18,18-1.18,40.8,16.57,10.79-1.19,20.4,5.92,20.4,13.73s18,6.39,22.8,9.94,24,13.6,24,13.6,25.83,4.15,26.12,7.7,25.48,24.85,25.48,24.85l19,24.67,53.07,7.75,6.74,9.31L1200,678.85l-.16,170.25Z" fill="url(#linear-gradient-4)"/><path d="M620.22,820.46l-4.5-7.65L609,807.55l-5.85-3.34-12-9-8.25-2.94-6.3-3.34L567.13,786l-29.25-21h-12.6l-7.2-2.39-11.7-4.6-7.2-5h-6.74c-.45,0-13.95-3.35-13.95-3.35l-7.2,3.35H460l-9-4.31h-5l-8.1-1-8.1,1.91-8.1,3.35H410.55l-10.35-5.26-10.8-5.74h-8.1l-6.75-2.87-7.2-3.35-9-2.84s-5.85-.5-7.2,0S339,727.23,339,727.23H335l-3.6-4.3H314.71l-13.95-10.52-5.4-3.4-5.4-.43s-7.2,1-9.9,0h-3.6l-17.09-14.82H248.12l-5.4-2.39h-9.9l-14.4-11-8.1-2.39-9-2.39h-9c-1.35,0-15.29-2.87-15.29-2.87h-8.1l-18.9-11h-.65l-1.55-3.8s.64-.35,0-1.55-.49-1.21-1-2.07a6.17,6.17,0,0,0-1.1-1.55c-.65-.69-1.46-2.59-2.92-3.79s0-2.07,0-2.07l1.46-.86c1.46-.86,0,0,1.62-1.55s0,0,.65-.52,0-1.72,0-1.72-1.78-2.24-3.24-4.31,0,0-.33-1.21a6.87,6.87,0,0,0-.81-2.24c-.49-.86,0,0-.49-.69a16.91,16.91,0,0,0-1.61-2.24c-.81-.86-1.1-3.53-1.1-3.53l-.31-1.25s1.56-.73,1.27-1.25.46-1.2,0-2.06.16-.69,0-1.38-.81-1-1.78-1.9a4.18,4.18,0,0,1-1.46-2.93,9.63,9.63,0,0,0,1.94-1,6.91,6.91,0,0,0,1.3-2.07s-.81-1.2-1.62-2.24,0,0-.49-.51a2.2,2.2,0,0,1-.32-1.56l2.43-.86-1.78-2.06L136,605l-.61-1.62.61-1-2.6-3.45-2.59,3.45.61,1L130.8,605l-2.11,1.9L126.91,609l2.43.86a2.2,2.2,0,0,1-.32,1.56c-.49.51.32-.52-.49.51s-1.62,2.24-1.62,2.24a6.91,6.91,0,0,0,1.3,2.07,9.37,9.37,0,0,0,1.94,1,4.18,4.18,0,0,1-1.46,2.93c-1,.86-1.62,1.21-1.78,1.9s.49.51,0,1.38.27,1.55,0,2.06,1.27,1.25,1.27,1.25l-.31,1.25s-.29,2.67-1.1,3.53a16.91,16.91,0,0,0-1.61,2.24c-.49.69,0-.17-.49.69a6.87,6.87,0,0,0-.81,2.24c-.33,1.21,1.13-.86-.33,1.21-.63.9-1.32,1.83-1.91,2.59-.13-.79-.27-1.6-.33-1.88-.15-.59-1-3.24-1-3.66a.89.89,0,0,1,.16-.59s1.36-.51,1.52-.51a8.67,8.67,0,0,0,0-2.53c-.08-.6-1.93-2.59-1.93-2.93a14,14,0,0,0-1-2.2l1.68-1a7.57,7.57,0,0,1-.64-2.37c.16-.42-.88-.76-.88-1.1a14.22,14.22,0,0,0-.56-1.94l1.44-.68-1.52-2.57.6-1.4-1.2-2.79-1-2.93,1-.62L115.22,605l-.17-.23-.17.23-2.78,3.84,1.19.76-1.19,2.79-1.2,2.79.6,1.4L110,619.13l1.44.68a14.22,14.22,0,0,0-.56,1.94c0,.34-1,.68-.88,1.1a7.57,7.57,0,0,1-.64,2.37l1.68,1a14,14,0,0,0-1,2.2c0,.34-1.87,2.41-2,3a8.67,8.67,0,0,0,0,2.53c.16,0,1.52.51,1.52.51a.89.89,0,0,1,.16.59c0,.42-1.63,3-1.78,3.55-.07.28-.43,1.27-.79,2.22l-2.3-2.65s-.5-3.26-.66-3.88-1-3.37-1-3.81a1,1,0,0,1,.16-.62s1.42-.53,1.59-.53a9.43,9.43,0,0,0,0-2.64c-.09-.61-2-2.69-2-3.05a14.59,14.59,0,0,0-1-2.28l1.75-1.06a8,8,0,0,1-.67-2.46c.17-.45-.91-.8-.91-1.15a14.85,14.85,0,0,0-.59-2l1.5-.71-1.58-2.68.62-1.45-1.25-2.91-1-3.05,1-.65-2.89-4L97.8,599l-.18.24-2.9,4L96,604l-1.25,2.91-1.25,2.91.63,1.45L92.51,614l1.51.71a14.85,14.85,0,0,0-.59,2c0,.35-1.08.7-.92,1.15a7.73,7.73,0,0,1-.66,2.46l1.75,1.06a14.59,14.59,0,0,0-1,2.28c0,.36-1.95,2.52-2,3.14a8.72,8.72,0,0,0,0,2.64c.16,0,1.58.53,1.58.53a.88.88,0,0,1,.17.61c0,.44-1.69,3.08-1.85,3.7-.09.36-.62,1.78-1,2.9l-.69-.8s-.6-3.85-.78-4.58-1.19-4-1.19-4.51a1.09,1.09,0,0,1,.2-.73s1.67-.63,1.87-.63.1-2.39,0-3.12-2.37-3.19-2.37-3.61a17.16,17.16,0,0,0-1.19-2.71l2.07-1.25s-1-2.39-.78-2.91-1.09-.94-1.09-1.35a17.67,17.67,0,0,0-.69-2.4l1.78-.83-1.88-3.18.74-1.72-1.48-3.43-1.19-3.62,1.19-.75-3.43-4.74L80.3,590l-.21.29-3.42,4.74,1.47.93-1.47,3.44-1.48,3.43.74,1.72-1.88,3.18,1.78.83a17.67,17.67,0,0,0-.69,2.4c0,.41-1.28.83-1.09,1.35s-.79,2.91-.79,2.91l2.07,1.25a17.23,17.23,0,0,0-1.18,2.71c0,.42-2.3,3-2.4,3.71s-.2,3.12,0,3.12,1.87.63,1.87.63a1,1,0,0,1,.2.72c0,.53-2,3.65-2.18,4.38-.06.21-.25.75-.48,1.4l-.65-.74s-.59-3.86-.77-4.58-1.19-4-1.19-4.52a1.13,1.13,0,0,1,.19-.73s1.68-.62,1.88-.62.1-2.4,0-3.13-2.37-3.19-2.37-3.6a17.16,17.16,0,0,0-1.19-2.71l2.07-1.25s-1-2.39-.79-2.92-1.08-.93-1.08-1.35a17.47,17.47,0,0,0-.69-2.39l1.77-.84-1.87-3.17.74-1.72-1.48-3.44-1.2-3.61,1.2-.76-3.43-4.73-.21-.29-.21.29-3.42,4.73,1.47.94-1.47,3.43L57,598.89l.74,1.72-1.88,3.17,1.78.84a17.47,17.47,0,0,0-.69,2.39c0,.42-1.29.83-1.09,1.35a4.86,4.86,0,0,1-.41,1.94c-.3-.2-1.16-.76-1.45-.91a3.23,3.23,0,0,0-1.08-.3c-.17,0-.23-.31-.52-.85s0-.43.06-.79,3.9-2.34,3.9-2.34a3.93,3.93,0,0,1-1.27-1.2c-.29-.61-.34-.31-.63-.55s-.29-1.09-.4-1.46-1.23-1.12-1.51-2-.35-.18-.63-.67,0,0-.17-.54-.12-.61-.35-1.28,0-.26,0-.26a1.46,1.46,0,0,0,.46,0c.17-.06.86.12,1.2,0a.58.58,0,0,1,.51,0s-.22-.55-.39-.91-.29-.49-.58-1.16-.4-.48-.74-1.09a4.59,4.59,0,0,0-1.14-1.27c-.52-.49-.63-2.14-.63-2.14l-.69-.63.38-.11a1.76,1.76,0,0,0,.77,0c.28-.12.45.12.85,0a1.83,1.83,0,0,1,.86,0v-.54a6.32,6.32,0,0,0-.86-1l-.24-.25s0,0-.08-.09l0,0a7.48,7.48,0,0,0-.91-.79c-.23-.18-.29-.42-.65-.79s.19-.36,0-.73,0-.54,0-.54H51c.58,0,0,0,.4-.19l.22-.07-.22-.23s-.28-.36-.45-.55a12,12,0,0,1-.8-1.39c-.63-1.09.11-.55.11-.55l.24-.42c.23-.43-.07-.37,0-.61s-.23-.36-.57-.79,0,0-.06-.18a4.87,4.87,0,0,0-.82-.79,4.3,4.3,0,0,0-.88-1.34c-.67-.72.22-.54.22-.54l.45-.31c.46-.3,0-.72,0-.72L47.27,575l-1.54,1.34s-.46.42,0,.72l.46.31s.88-.18.21.54a4.13,4.13,0,0,0-.87,1.34,4.87,4.87,0,0,0-.83.79c-.06.18.29-.24-.06.18s-.63.55-.57.79-.24.18,0,.61l.24.42s.74-.54.11.55a9.21,9.21,0,0,1-.8,1.39c-.17.19-.45.55-.45.55l-.22.23.22.07c.4.19-.17.19.4.19h1.5s.2.18,0,.54.37.37,0,.73-.42.61-.65.79a8.32,8.32,0,0,0-.91.79l0,0c-.07.07-.09.09-.08.09l-.24.25a6.32,6.32,0,0,0-.86,1v.54a1.83,1.83,0,0,1,.86,0c.4.12.57-.12.85,0a1.8,1.8,0,0,0,.78,0l.37.11-.69.63s-.11,1.65-.63,2.14A4.59,4.59,0,0,0,42.7,594c-.34.61-.46.43-.74,1.09s-.4.79-.57,1.16-.4.91-.4.91a.58.58,0,0,1,.51,0c.34.12,1-.06,1.2,0a1.46,1.46,0,0,0,.46,0s.23-.41,0,.26-.17.73-.34,1.28.11.06-.18.54-.34-.18-.62.67-2.86,1.64-3,2-.11,1.22-.39,1.46-.35-.06-.63.55a10.63,10.63,0,0,0-.52,1.39s-.85.31,0,.37,1.72.06,1.72.3v.24s1.65.73,1.71,1.1.34.24.06.79-.35.84-.52.84.35.19,0,.37-.8.49-1.18.74a5.56,5.56,0,0,0-.54-1.23c-.49-.86,0,0-.49-.69a15.86,15.86,0,0,0-1.62-2.24c-.8-.86-1.1-3.53-1.1-3.53l-.3-1.26s1.56-.72,1.26-1.24.46-1.21,0-2.07.16-.69,0-1.38-.82-1-1.79-1.89a4.24,4.24,0,0,1-1.46-2.93,9.86,9.86,0,0,0,2-1,6.78,6.78,0,0,0,1.3-2.06s-.82-1.21-1.63-2.24,0,0-.48-.52a2.15,2.15,0,0,1-.33-1.55l2.44-.86-1.79-2.07-2.11-1.9-.6-1.61.6-1L30,573.35,27.4,576.8l.6,1-.6,1.61-2.11,1.9-1.79,2.07,2.44.86a2.15,2.15,0,0,1-.33,1.55c-.48.52.33-.52-.48.52s-1.63,2.24-1.63,2.24a6.78,6.78,0,0,0,1.3,2.06,9.86,9.86,0,0,0,1.95,1,4.28,4.28,0,0,1-1.46,2.93c-1,.86-1.62,1.2-1.79,1.89s.49.52,0,1.38.27,1.55,0,2.07,1.26,1.24,1.26,1.24l-.3,1.26s-.3,2.67-1.1,3.53a15.86,15.86,0,0,0-1.62,2.24c-.49.69,0-.17-.49.69a7.27,7.27,0,0,0-.81,2.24c-.28,1.06.81-.41.09.63l-.83-1.15c-1.46-2.06,0,0-.32-1.2a7,7,0,0,0-.82-2.24c-.48-.86,0,0-.48-.69a15.86,15.86,0,0,0-1.62-2.24c-.8-.86-1.1-3.53-1.1-3.53l-.3-1.26s1.56-.73,1.26-1.24.46-1.21,0-2.07.17-.69,0-1.38-.81-1-1.78-1.89A4.26,4.26,0,0,1,13,589.9a9.86,9.86,0,0,0,2-1,6.68,6.68,0,0,0,1.29-2.06s-.81-1.21-1.62-2.24,0,0-.48-.52a2.15,2.15,0,0,1-.33-1.55l2.43-.86-1.78-2.07-2.11-1.9-.6-1.61.6-1-2.59-3.45-2.6,3.45.61,1-.61,1.61-2.1,1.9L3.3,581.63l2.44.86A2.15,2.15,0,0,1,5.41,584c-.49.52.33-.52-.49.52S3.3,586.8,3.3,586.8a6.78,6.78,0,0,0,1.3,2.06,9.86,9.86,0,0,0,2,1,4.3,4.3,0,0,1-1.46,2.93c-1,.86-1.62,1.2-1.79,1.89s.49.52,0,1.38.27,1.55,0,2.07,1.26,1.24,1.26,1.24l-.3,1.26s-.3,2.67-1.1,3.53a15.86,15.86,0,0,0-1.62,2.24c-.49.69,0-.17-.49.69a7.27,7.27,0,0,0-.81,2.24c-.31,1.17,1.06-.76-.22,1.06v8.88l.38.22s1.46.86,0,2.07L0,622V850H639.12ZM20.66,623.25a8.14,8.14,0,0,0-1.47-1.65c-.73-.61-.73-1.12-.54-1.49l.48.28,1.46.86A1.14,1.14,0,0,1,20.66,623.25Zm18.61-1.53c-.21.4.23-.16-.42,1a1,1,0,0,1,.35-1.28C39.29,621.5,39.34,621.6,39.27,621.72Zm16.06-5.49c0-.12.06-.2.06-.2l.12,0A2.5,2.5,0,0,0,55.33,616.23ZM56.91,613l-.41-.25c-1.83-1.09-.69-.61-.86-.85a.67.67,0,0,1-.08-.27l1.56.94S57,612.7,56.91,613Z" fill="url(#linear-gradient-5)"/><path d="M0,722l32.6-5.74,21.59,2.87L83,722s10.8-2.87,13.5-5.74,20.69,0,20.69,0l13.5-1.27h18.9l18.9,3.5h17.1l17.09,16.9h36L259.37,753s9.89,1.39,12.59,0,17.1.62,17.1.62l9,5.65H308l40.49,20.08h10.8l16.2,6.7s11.7-4.78,13.5,0,12.6,0,12.6,0l27,9.56h21.6s15.3,5.74,18,7.65,51.29,23.91,51.29,23.91l16.2,11.47L572.52,850H0Z" fill="url(#linear-gradient-6)"/><path d="M1190.16,687.07c-1.52-3.53-3.14-7.22-4.26-9.56-2.73-5.71,0,0-.45-1.63a11.57,11.57,0,0,0-1.14-2.72,4.05,4.05,0,0,0,1.59-1.36c.46-.81,4.77-1.36,4.77-2.17s.23-1.09,0-1.9-3.18-10.33-3.18-10.33l-10-13.1s-1.36-10-1.78-11.95-2.75-10.43-2.75-11.78a3.11,3.11,0,0,1,.46-1.91,44.28,44.28,0,0,1,4.31-1.63c.46,0,.23-6.25,0-8.15s-5.46-8.33-5.46-9.42-2.73-7.06-2.73-7.06l4.77-3.26s-2.27-6.25-1.82-7.61-2.5-2.45-2.5-3.53a50.86,50.86,0,0,0-1.59-6.25l4.09-2.18-4.31-8.29,1.7-4.48-3.41-9-2.75-9.43,2.75-2-7.9-12.35-.48-.75-.48.75-7.9,12.35,3.4,2.44-3.4,9-3.41,9,1.71,4.48-4.32,8.29,4.09,2.18a50.86,50.86,0,0,0-1.59,6.25c0,1.08-3,2.17-2.5,3.53.26.79-.4,3.23-1,5.14-.6-1.91-1.26-4.35-1-5.14.45-1.36-2.5-2.45-2.5-3.53a50.86,50.86,0,0,0-1.59-6.25l4.09-2.18-4.32-8.29,1.7-4.48-3.41-9-2.75-9.43,2.75-2-7.89-12.35-.49-.75-.48.75-7.9,12.35,3.4,2.44-3.4,9-3.41,9,1.71,4.48-4.32,8.29,4.09,2.18a50.86,50.86,0,0,0-1.59,6.25c0,1.08-2.95,2.17-2.5,3.53.23.68-.23,2.6-.75,4.34,0-.6,0-1,0-1s-2.76-2.06-3.55-2.54a6.9,6.9,0,0,0-2.5-.79c-.4,0-.53-.79-1.18-2.22s0-1.1.13-2.06,9-6.11,9-6.11a9.46,9.46,0,0,1-2.93-3.13c-.66-1.58-.79-.79-1.45-1.42s-.65-2.86-.92-3.81-2.83-2.93-3.49-5.14-.79-.48-1.44-1.75,0,0-.4-1.42-.26-1.59-.79-3.33,0-.68,0-.68a2.9,2.9,0,0,0,1.05-.11c.4-.16,2,.31,2.77,0a1.18,1.18,0,0,1,1.18,0s-.52-1.43-.92-2.38-.66-1.27-1.31-3-.93-1.27-1.72-2.85a11.81,11.81,0,0,0-2.63-3.33c-1.18-1.27-1.45-5.58-1.45-5.58l-1.57-1.63.85-.3a3.58,3.58,0,0,0,1.78-.09c.66-.32,1.05.31,2,0a3.66,3.66,0,0,1,2,0v-1.43a17.69,17.69,0,0,0-2-2.69l-.55-.67-.18-.22-.06-.06a18.47,18.47,0,0,0-2.1-2.06c-.53-.48-.66-1.11-1.5-2.06s.44-1,0-1.9,0-1.43,0-1.43h3.47c1.32,0,0,0,.92-.47a2,2,0,0,1,.49-.2l-.49-.6s-.66-1-1-1.42-.4-.79-1.84-3.65.26-1.42.26-1.42l.54-1.11c.55-1.11-.15-.95,0-1.59s-.53-1-1.32-2.06,0,0-.13-.47a11.27,11.27,0,0,0-1.9-2.06,11.4,11.4,0,0,0-2-3.49c-1.55-1.9.49-1.42.49-1.42l1.05-.79c1-.8,0-1.9,0-1.9l-3.55-3.49-3.56,3.49s-1,1.1,0,1.9l1,.79s2-.48.49,1.42a11.4,11.4,0,0,0-2,3.49,11.27,11.27,0,0,0-1.9,2.06c-.13.47.66-.63-.13.47s-1.45,1.43-1.32,2.06-.56.48,0,1.59l.54,1.11s1.71-1.43.26,1.42-1.44,3.17-1.84,3.65-1,1.42-1,1.42l-.49.6a2,2,0,0,1,.49.2c.92.47-.4.47.92.47H1088s.44.48,0,1.43.84,1,0,1.9-1,1.58-1.5,2.06a18.47,18.47,0,0,0-2.1,2.06l-.06.06-.18.22-.55.67a17.69,17.69,0,0,0-2,2.69v1.43a3.66,3.66,0,0,1,2,0c.92.31,1.31-.32,2,0a3.58,3.58,0,0,0,1.78.09l.86.3-1.58,1.63s-.27,4.31-1.45,5.58a11.81,11.81,0,0,0-2.63,3.33c-.79,1.58-1.06,1.11-1.72,2.85s-.92,2.06-1.31,3-.92,2.38-.92,2.38a1.18,1.18,0,0,1,1.18,0c.79.31,2.37-.16,2.77,0a2.9,2.9,0,0,0,1.05.11s.53-1.06,0,.68-.4,1.9-.79,3.33.26.16-.4,1.42-.79-.47-1.44,1.75c-.47,1.57-3.6,3.07-5.46,4.14-.56-.52-1.19-1.09-1.89-1.8-2.43-2.43-3.23-4.87-3.64-8.27a24,24,0,0,0,4.86-2.93c1.61-1.46,3.23-5.84,3.23-5.84s-2-3.41-4-6.33,0,0-1.22-1.46-.81-4.38-.81-4.38l6.07-2.44-4.45-5.84-5.26-5.36-1.51-4.56,1.51-2.74-6.47-9.74-6.47,9.74,1.52,2.74-1.52,4.56-5.26,5.36-4.45,5.84,6.07,2.44s.4,2.92-.81,4.38.81-1.46-1.21,1.46-4,6.33-4,6.33,1.62,4.38,3.24,5.84a23.7,23.7,0,0,0,4.85,2.93c-.4,3.4-1.21,5.84-3.64,8.27s-4,3.41-4.45,5.36,1.21,1.46,0,3.89.68,4.39-.07,5.85,3.16,3.51,3.16,3.51l-.76,3.55s-.74,7.54-2.75,10a44.77,44.77,0,0,0-4,6.33c-1.21,2,0-.49-1.21,2s-1.22,2.92-2,6.33,2.83-2.44-.81,3.4l-.19.3a13.9,13.9,0,0,0-1.24-3.22c-1.12-2.25,0,0-1.12-1.8a41.78,41.78,0,0,0-3.73-5.85c-1.85-2.24-2.53-9.21-2.53-9.21l-.7-3.28s3.59-1.9,2.91-3.24,1.06-3.15-.06-5.4.37-1.8,0-3.6-1.87-2.7-4.11-4.95-3-4.49-3.36-7.64a22,22,0,0,0,4.48-2.7c1.49-1.35,3-5.39,3-5.39s-1.87-3.15-3.74-5.85,0,0-1.12-1.35-.75-4-.75-4l5.61-2.24-4.11-5.4-4.86-5-1.4-4.21,1.4-2.53-6-9-6,9,1.4,2.53-1.4,4.21-4.86,5-4.11,5.4,5.6,2.24s.38,2.7-.74,4,.74-1.35-1.12,1.35-3.74,5.85-3.74,5.85,1.5,4,3,5.39a21.76,21.76,0,0,0,4.48,2.7c-.37,3.15-1.12,5.4-3.36,7.64s-3.74,3.15-4.11,4.95,1.12,1.35,0,3.6.63,4.05-.06,5.4,2.91,3.24,2.91,3.24l-.7,3.28s-.68,7-2.54,9.21a42.55,42.55,0,0,0-3.72,5.85c-1.12,1.8,0-.45-1.12,1.8s-1.12,2.7-1.87,5.85,2.62-2.25-.74,3.14-7.48,11.25-7.48,11.25-1.49,3.14,0,4.49-2.24-2.7,1.5,1.35.37,1.8,3.73,4l3.37,2.25s3.36,2.25,0,5.39-5.23,8.1-6.73,9.9a15.53,15.53,0,0,0-2.53,4l-.05.09a37.08,37.08,0,0,1-1-4.81,3,3,0,0,1,.45-1.86,42.64,42.64,0,0,1,4.23-1.6c.44,0,.22-6.12,0-8s-5.36-8.16-5.36-9.22-2.67-6.92-2.67-6.92l4.67-3.2s-2.22-6.12-1.78-7.45-2.45-2.4-2.45-3.46a49.83,49.83,0,0,0-1.56-6.13l4-2.13L979,596.08l1.67-4.39-3.34-8.78-2.7-9.25,2.7-1.94-7.74-12.09-.47-.74-.47.74-7.74,12.09,3.33,2.4-3.33,8.79-3.34,8.78,1.67,4.39L955,604.2l4,2.13a49.83,49.83,0,0,0-1.56,6.13c0,1.06-2.89,2.13-2.45,3.46s-1.78,7.45-1.78,7.45l4.68,3.2s-2.68,5.85-2.68,6.92-5.2,7.61-5.42,9.48-.44,8,0,8a42.64,42.64,0,0,1,4.23,1.6,3,3,0,0,1,.45,1.86c0,1.33-4.52,9.32-4.94,11.18-.14.67-.74,2.58-1.45,4.73a54.67,54.67,0,0,1-1.4-6.28,2.65,2.65,0,0,1,.38-1.61,36.91,36.91,0,0,1,3.66-1.38c.38,0,.19-5.29,0-6.9s-4.63-7-4.63-8-2.31-6-2.31-6l4-2.76s-1.92-5.29-1.54-6.44-2.11-2.07-2.11-3a43.06,43.06,0,0,0-1.35-5.29l3.46-1.84-3.65-7,1.44-3.8-2.89-7.59-2.33-8,2.33-1.68-6.68-10.45-.41-.64-.41.64L927,592.82l2.87,2.07L927,602.48l-2.89,7.59,1.45,3.8-3.66,7,3.46,1.84A43.32,43.32,0,0,0,924,628c0,.92-2.5,1.84-2.12,3s-1.54,6.44-1.54,6.44l4,2.76s-2.31,5.06-2.31,6-4.11,6.1-4.63,8c-.35-.31-.64-.61-.64-.91a39.8,39.8,0,0,0-1.24-4.88l3.19-1.7-3.37-6.48,1.33-3.51-2.66-7-2.16-7.38,2.16-1.55-6.18-9.65-.37-.59-.38.59L901,620.73l2.65,1.91-2.65,7-2.67,7,1.33,3.51-3.37,6.48,3.2,1.7a39.54,39.54,0,0,0-1.25,4.88c0,.85-2.31,1.7-2,2.76.27.82-.71,3.87-1.18,5.26a2.56,2.56,0,0,1-.21-.4c-.52-1.24-.62-.62-1.13-1.12s-.52-2.23-.72-3-2.22-2.29-2.73-4-.62-.37-1.13-1.36,0,0-.31-1.11-.21-1.24-.62-2.6,0-.54,0-.54a2.33,2.33,0,0,0,.82-.08c.31-.13,1.55.25,2.17,0a.93.93,0,0,1,.92,0s-.41-1.12-.72-1.86-.51-1-1-2.35-.72-1-1.34-2.23a9.25,9.25,0,0,0-2-2.6c-.93-1-1.13-4.37-1.13-4.37l-1.24-1.27.67-.24a2.7,2.7,0,0,0,1.39-.07c.51-.24.82.25,1.54,0a3,3,0,0,1,1.54,0v-1.11a12.81,12.81,0,0,0-1.54-2.11l-.43-.52-.14-.17,0,0a14,14,0,0,0-1.64-1.61c-.41-.37-.52-.87-1.17-1.61s.35-.74,0-1.49,0-1.11,0-1.11h2.71c1,0,0,0,.72-.37a1.87,1.87,0,0,1,.39-.16l-.39-.46s-.51-.74-.82-1.12a23.78,23.78,0,0,1-1.44-2.84c-1.13-2.23.2-1.12.2-1.12l.43-.86c.42-.87-.12-.75,0-1.24s-.42-.75-1-1.61,0,0-.11-.37a8.6,8.6,0,0,0-1.48-1.61,9,9,0,0,0-1.57-2.73c-1.21-1.48.38-1.11.38-1.11l.82-.62c.83-.62,0-1.49,0-1.49l-2.78-2.72-2.77,2.72s-.83.87,0,1.49l.82.62s1.59-.37.38,1.11a11.91,11.91,0,0,1-3.06,4.34c-.1.37.52-.5-.1.37s-1.13,1.11-1,1.61-.43.37,0,1.24l.42.86s1.34-1.11.21,1.12a23.78,23.78,0,0,1-1.44,2.84c-.31.38-.82,1.12-.82,1.12l-.39.46a2.12,2.12,0,0,1,.39.16c.72.37-.31.37.72.37h2.71s.35.37,0,1.11.66.75,0,1.49-.76,1.24-1.17,1.61a14.75,14.75,0,0,0-1.65,1.61l0,0-.14.17-.43.52a13.54,13.54,0,0,0-1.55,2.11v1.11a3,3,0,0,1,1.55,0c.72.25,1-.24,1.54,0a2.7,2.7,0,0,0,1.39.07l.67.24-1.24,1.27s-.2,3.38-1.13,4.37a9.47,9.47,0,0,0-2.06,2.6c-.61,1.24-.82.86-1.33,2.23s-.72,1.61-1,2.35-.72,1.86-.72,1.86a.93.93,0,0,1,.92,0c.62.25,1.86-.13,2.16,0a2.39,2.39,0,0,0,.83.08s.41-.83,0,.54-.31,1.48-.62,2.6.21.12-.31,1.11-.62-.37-1.13,1.36-5.14,3.35-5.35,4.09-.21,2.48-.72,3-.62-.12-1.13,1.12c-.22.53-.42,1.13-.58,1.64a31,31,0,0,1-.5-3.21l-.55-2.56s2.81-1.48,2.27-2.53.83-2.46,0-4.22.29-1.41,0-2.81-1.46-2.11-3.22-3.87a9.14,9.14,0,0,1-2.63-6,16.88,16.88,0,0,0,3.51-2.11c1.17-1,2.34-4.21,2.34-4.21s-1.46-2.46-2.93-4.57,0,0-.87-1.06-.59-3.16-.59-3.16l4.39-1.76-3.22-4.22-3.79-3.86-1.1-3.3,1.1-2-4.68-7-4.67,7,1.1,2-1.1,3.3-3.79,3.86-3.22,4.22,4.38,1.76s.3,2.11-.58,3.16.58-1-.88,1.06-2.92,4.57-2.92,4.57,1.17,3.16,2.34,4.21a16.92,16.92,0,0,0,3.5,2.11,9.08,9.08,0,0,1-2.62,6c-1.76,1.76-2.92,2.46-3.22,3.87s.88,1,0,2.81.49,3.16,0,4.22,2.27,2.53,2.27,2.53l-.55,2.56s-.53,5.45-2,7.21a33.24,33.24,0,0,0-2.91,4.57c-.87,1.4,0-.35-.87,1.4a12.16,12.16,0,0,0-1.23,3.58l0-.06c-.88-1.76,0,0-.88-1.41a33.24,33.24,0,0,0-2.91-4.57c-1.45-1.76-2-7.21-2-7.21l-.55-2.55s2.81-1.49,2.28-2.54.82-2.46,0-4.22.29-1.41,0-2.81-1.46-2.11-3.21-3.87a9,9,0,0,1-2.63-6,17.41,17.41,0,0,0,3.5-2.11c1.17-1.06,2.34-4.22,2.34-4.22S830.5,632.1,829,630s0,0-.88-1.06-.58-3.16-.58-3.16L832,624l-3.21-4.21-3.8-3.87-1.1-3.3,1.1-2-4.67-7-4.67,7,1.09,2-1.09,3.3-3.8,3.87L808.6,624l4.38,1.76s.29,2.11-.59,3.16.59-1-.87,1.06-2.92,4.57-2.92,4.57,1.17,3.16,2.33,4.22a17.38,17.38,0,0,0,3.51,2.11,9.07,9.07,0,0,1-2.63,6c-1.75,1.76-2.92,2.46-3.21,3.87s.87,1,0,2.81.48,3.16-.05,4.22,2.27,2.54,2.27,2.54l-.54,2.55s-.53,5.45-2,7.21a32.31,32.31,0,0,0-2.91,4.57c-.88,1.41,0-.35-.88,1.41a15.18,15.18,0,0,0-1.46,4.56c-.59,2.46,2-1.75-.59,2.46s-5.84,8.79-5.84,8.79-1.16,2.46,0,3.52-1.75-2.11,1.17,1,.29,1.41,2.92,3.17l2.63,1.75s2.63,1.76,0,4.22-4.09,6.33-5.26,7.73a12.55,12.55,0,0,0-2,3.17c-1,1.75-.65,1.75-1.82,4.22s0,3.16,0,3.16l-2.92,8.08,2.92,2.46h2s.59,2.11-1.17,5.28-2.62,2.11-3.79,4.21,1.75-2.1-1.17,2.11c-2.8,4-5.32,8.09-5.79,10.58H781.2l-19.43,8.23-17.39,4.71-15.77,10.58H715.46l-22.35,9.41H681.28l-25,10.59L632.63,806h-9.2L605,818.9H570.84l-15.77,16.46-25,14.64H1200V684.82Z" fill="url(#linear-gradient-7)"/><path d="M1125.39,448.69c-1.2-3.8-6.45-6.65-12.75-6.65a19.27,19.27,0,0,0-5.72.84c-2.82-3.91-9-6.63-16.21-6.63a25.75,25.75,0,0,0-9.45,1.72,19.61,19.61,0,0,0-2.66-1.57c-.6-6.24-8.73-11.19-18.67-11.19a28.13,28.13,0,0,0-3.34.2c-3-3.94-9.41-6.66-16.77-6.66a27.69,27.69,0,0,0-8.35,1.26c-.75-.05-1.51-.08-2.28-.08-8.11,0-15.15,2.89-18.75,7.14-.62.13-1.23.28-1.82.45a24.93,24.93,0,0,0-7.47-2.08c-3.22-4.9-10.8-8.34-19.64-8.34A31,31,0,0,0,971,418.88a33.77,33.77,0,0,0-12.52-2.3,35.93,35.93,0,0,0-4.2.24c-3.83-4.95-11.82-8.36-21.06-8.36A34.66,34.66,0,0,0,922.86,410c-4.59-5.18-13.29-8.68-23.28-8.68-14.21,0-25.82,7.07-26.67,16-6.73,1.39-12.12,4.66-14.66,8.85-9.67,1.85-16.71,7.57-16.71,14.34a11.51,11.51,0,0,0,3.84,8.2Z" fill="#f9dfaf" opacity="0.2"/><path d="M264.51,492.48c-1-3.29-5.59-5.76-11-5.76a16.85,16.85,0,0,0-5,.73c-2.45-3.39-7.82-5.75-14.06-5.75a22.16,22.16,0,0,0-8.18,1.5,15.26,15.26,0,0,0-2.31-1.36c-.52-5.41-7.56-9.7-16.17-9.7a25,25,0,0,0-2.9.17c-2.64-3.42-8.16-5.77-14.53-5.77a23.79,23.79,0,0,0-7.24,1.09c-.64-.05-1.3-.07-2-.07-7,0-13.13,2.51-16.25,6.19-.54.11-1.07.24-1.58.39a21.89,21.89,0,0,0-6.47-1.81c-2.79-4.24-9.36-7.22-17-7.22a26.88,26.88,0,0,0-9.13,1.55,29.08,29.08,0,0,0-10.84-2,30.84,30.84,0,0,0-3.64.21c-3.32-4.29-10.25-7.24-18.25-7.24A30,30,0,0,0,89,459c-4-4.49-11.52-7.52-20.18-7.52-12.3,0-22.36,6.13-23.11,13.86-5.83,1.2-10.5,4-12.7,7.66-8.37,1.61-14.48,6.56-14.48,12.43a9.94,9.94,0,0,0,3.33,7.1Z" fill="#f9dfaf" opacity="0.2"/><path d="M306.2,383.65c-1.86-4.29-8-7.45-15.24-7.54-2.47-3.68-8.19-6.26-14.86-6.26a24.46,24.46,0,0,0-5.66.65c-2.22-4-8.2-6.85-15.22-6.85a23.84,23.84,0,0,0-6.64.91c-3.06-5.74-11.57-9.86-21.6-9.86-.87,0-1.73,0-2.57.09-3.77-5.5-11.27-9.26-19.91-9.26a26.93,26.93,0,0,0-13.67,3.57c-8.1-5-19.13-8.1-31.31-8.1-18.47,0-34.34,7.11-41.26,17.27h-.67c-17.36,0-31.44,9-31.44,20.05a13.47,13.47,0,0,0,1.13,5.34Z" fill="#f9dfaf" opacity="0.2"/></svg>