<svg xmlns="http://www.w3.org/2000/svg" xmlns:xlink="http://www.w3.org/1999/xlink" viewBox="0 0 1200 850"><defs><linearGradient id="linear-gradient" x1="-536.14" y1="380.11" x2="-536.14" y2="-6.75" gradientTransform="matrix(-1, 0, 0, 1, 63.86, 0)" gradientUnits="userSpaceOnUse"><stop offset="0" stop-color="#ffbfbf"/><stop offset="1" stop-color="#8086bd"/></linearGradient><linearGradient id="linear-gradient-2" x1="-262.59" y1="630.01" x2="-14.62" y2="760.42" gradientTransform="matrix(-1, 0, 0, 1, 63.86, 0)" gradientUnits="userSpaceOnUse"><stop offset="0" stop-color="#505680"/><stop offset="1" stop-color="#3f4364"/></linearGradient><linearGradient id="linear-gradient-3" x1="-183.02" y1="671.83" x2="38.92" y2="788.55" xlink:href="#linear-gradient-2"/><linearGradient id="linear-gradient-4" x1="-401.28" y1="583.33" x2="-937.11" y2="849.63" gradientTransform="matrix(-1, 0, 0, 1, 63.86, 0)" gradientUnits="userSpaceOnUse"><stop offset="0" stop-color="#505680"/><stop offset="1" stop-color="#2c3154"/></linearGradient><linearGradient id="linear-gradient-5" x1="-210.61" y1="656.43" x2="-210.61" y2="872.41" gradientTransform="matrix(-1, 0, 0, 1, 63.86, 0)" gradientUnits="userSpaceOnUse"><stop offset="0" stop-color="#e3afc0"/><stop offset="1" stop-color="#575b82"/></linearGradient><linearGradient id="linear-gradient-6" x1="-536.14" y1="656.43" x2="-536.14" y2="872.41" xlink:href="#linear-gradient-5"/><linearGradient id="linear-gradient-7" x1="-253.34" y1="656.43" x2="-253.34" y2="872.41" xlink:href="#linear-gradient-5"/></defs><g style="isolation:isolate"><g id="Layer_1" data-name="Layer 1"><rect width="1200" height="592.36" fill="url(#linear-gradient)"/><polygon points="1200 532.86 1164.09 555.64 1088.78 532.09 1050.68 530.79 957.96 549.78 825.87 530.26 681.07 552.38 471.93 542.62 388.94 561.49 292.42 556.94 173.02 530.79 152.7 531.1 81.58 552.26 0 546.19 0 676.21 1199.99 676.21 1200 532.86" fill="#6a78ad" opacity="0.2"/><polygon points="1200 548.58 1164.09 546.22 1103.05 583.46 1020.2 555.08 909.7 564.84 874.03 557.73 809.74 578.78 471.93 596.51 370.32 557.47 289.04 579.59 234.42 568.53 137.54 547.2 86.65 562.89 0 534.91 0 676.21 1200 676.21 1200 548.58" fill="#6a78ad" opacity="0.5"/><polygon points="183.69 676.21 183.37 616.72 256.54 599.37 281.85 598.84 358.99 579.41 399.63 580.72 490.02 570.4 562.68 531.11 641.87 560.54 673.62 573.34 799.25 582.51 863.63 595.8 1115.06 647.71 1123.49 676.21 183.69 676.21" fill="#6a75aa"/><polygon points="562.68 531.11 562.68 563.31 690.39 595.37 672.36 581.15 716.97 585.07 863.63 595.8 799.25 582.51 673.62 573.34 641.87 560.54 562.68 531.11" fill="#fff" opacity="0.1"/><polygon points="0 592.98 96.62 575.5 146.78 583.14 318.2 624.44 386.08 601.12 447.04 595.95 513.92 624.14 567.76 618.63 636.49 598.82 737.72 614.48 836.46 587.73 911.53 603.45 1005.35 585.88 1200 610.52 1200 683.86 0 683.86 0 592.98" fill="#646fa0"/><polygon points="1200 598.64 1164.09 595.7 1103.05 620.84 951.32 610.47 899.23 646.3 806.19 621.22 685.51 646.03 564.22 615.82 480.8 621.24 444.59 629.18 368.64 645.84 271.77 619.1 95.67 595.68 0 616.78 0 676.21 1200 676.21 1200 598.64" fill="#5c6593"/><polygon points="334.85 638.39 364.45 648.45 393.9 657.76 307.05 664.38 262.32 671.59 240.73 681.56 145.46 685.78 168.76 652.49 203.19 631.6 226.9 648.5 265.28 643.83 281.09 637.37 290.68 641.09 313.4 641.12 334.85 638.39" fill="url(#linear-gradient-2)"/><polygon points="364.45 648.45 334.85 638.39 313.4 641.12 349.38 648.58 339.79 644.85 364.45 648.45" fill="#fff" opacity="0.1"/><polygon points="290.68 641.09 281.09 637.37 284.19 644.51 318.34 649.6 290.68 641.09" fill="#fff" opacity="0.1"/><polygon points="226.9 648.5 203.19 631.6 196.14 648.24 229.72 663.02 277.42 658.26 226.9 648.5" fill="#fff" opacity="0.1"/><polygon points="0 825.54 240.57 825.54 240.5 681.25 209.86 669.33 169.06 650.63 121.08 668.61 68.88 673.15 0 651.26 0 825.54" fill="url(#linear-gradient-3)"/><polygon points="0 651.26 68.88 673.15 28.79 717.52 72.39 718.8 22.01 754.21 0 762.36 0 651.26" fill="#fff" opacity="0.07"/><polygon points="0 825.54 106.68 825.54 187.96 794.46 121.78 792.32 133.35 770 31.33 797.26 69 777.39 0 784.52 0 825.54" fill="#fff" opacity="0.04"/><polygon points="121.08 668.61 169.06 650.63 183.73 671.16 147.04 699.01 145.63 680.33 95.96 695.45 121.08 668.61" fill="#fff" opacity="0.08"/><polygon points="240.5 681.25 240.57 739.09 213.92 773.57 193.04 780.53 184.57 770 203.48 726.19 149.58 722.62 240.5 681.25" fill="#fff" opacity="0.06"/><polygon points="134.62 706.66 83.82 739.26 51.36 754.38 68.3 764.4 97.65 761.68 140.26 750.13 109.22 746.57 134.62 706.66" fill="#fff" opacity="0.08"/><polygon points="1014.73 628.31 982.99 637.48 958.7 656.23 863.42 668.38 815.9 652.66 598.96 625.23 504.33 659.78 415.15 652.31 393.9 657.76 306.81 681.25 306.82 825.54 1200 825.54 1200 627.65 1158.94 651.98 1014.73 628.31" fill="url(#linear-gradient-4)"/><polygon points="1200 749.64 1200 627.65 1125.65 727.48 1156.18 720.36 1200 749.64" fill="#fff" opacity="0.1"/><polygon points="1014.73 628.31 982.99 637.48 1095.76 757.17 1072.32 678.19 1158.94 651.98 1014.73 628.31" fill="#fff" opacity="0.05"/><polygon points="863.42 668.38 815.9 652.66 928.72 742.77 1021.14 748.12 934.99 707.51 958.7 656.23 863.42 668.38" fill="#fff" opacity="0.05"/><polygon points="415.15 652.31 403.9 709.59 306.82 721.83 306.81 681.25 393.9 657.76 393.9 657.76 415.15 652.31" fill="#fff" opacity="0.1"/><polygon points="1151.45 757.41 1106.99 739.83 1104.07 784.41 1027.14 764.59 1132 825.54 1200 825.54 1200 805.68 1151.45 757.41" fill="#fff" opacity="0.03"/><polygon points="1008.4 796.33 822.97 719.63 815.39 777.7 736.62 746 796.66 801.26 828.84 825.54 1038.41 825.54 1008.4 796.33" fill="#fff" opacity="0.03"/><polygon points="475.33 692.95 381.71 772.04 368.44 748.12 306.82 772.04 306.82 825.54 781.7 825.54 725.82 763.96 679.3 800.75 661.52 763.05 521.32 709.59 500.68 730.12 475.33 692.95" fill="#fff" opacity="0.02"/><polygon points="598.96 625.23 504.33 659.78 602.35 641.58 815.9 652.66 598.96 625.23" fill="#fff" opacity="0.11"/><polygon points="529.63 658.96 549.97 704.54 634.89 738.88 692.82 758.69 609 686.09 598.21 700.23 529.63 658.96" fill="#fff" opacity="0.06"/><polygon points="717.76 663.77 806.66 680.59 763.48 701.99 774.49 735.11 712.68 725.42 635.63 664.28 717.76 663.77" fill="#fff" opacity="0.06"/><polygon points="320.89 792.17 320.13 778.98 320.13 778.98 318.77 749.88 310.2 717.82 316.13 703.08 306.81 681.25 240.5 681.25 239.61 711.92 231.35 728.23 230.29 760.12 221.41 779.93 213.36 798.53 207.86 825.54 341.08 825.54 320.89 792.17" fill="url(#linear-gradient-5)"/><path d="M221.41,779.93s51.54-1,78.23-1c6.74,0,20.49.06,20.49.06l144.18,9.77H736.12l147.33,6.11,221-2.29,95.55,6.11V850H0V783.68l133.2.26Z" fill="url(#linear-gradient-6)"/><polygon points="262.32 671.59 305.64 664.72 342.61 661.66 393.9 657.76 352.77 664.33 331.68 668.54 306.81 681.25 306.97 682.35 240.59 682.35 240.5 681.25 262.32 671.59" fill="url(#linear-gradient-7)"/><polygon points="190.82 737.41 748.85 733.77 1200 695.02 1200 830.73 70.9 841.19 806.19 805.39 190.82 737.41" fill="#fff" opacity="0.04"/><g style="mix-blend-mode:color-dodge"><path d="M494.05,49.73c3.21,0,3.21,5.63,0,5.63S490.85,49.73,494.05,49.73Z" fill="#fff5f5" opacity="0.75"/><path d="M841.23,304.27c1.86,0,1.86,3.27,0,3.27S839.37,304.27,841.23,304.27Z" fill="#fff5f5" opacity="0.74"/><path d="M813.94,73.07c2.1,0,2.1,3.7,0,3.7S811.84,73.07,813.94,73.07Z" fill="#fff5f5" opacity="0.75"/><path d="M631.89,24.74c2.56,0,2.56,4.49,0,4.49S629.34,24.74,631.89,24.74Z" fill="#fff5f5" opacity="0.67"/><path d="M730.08,270.67c2.66,0,2.66,4.66,0,4.66S727.43,270.67,730.08,270.67Z" fill="#fff5f5" opacity="0.65"/><path d="M644.14,206.09c2.51,0,2.51,4.42,0,4.42S641.63,206.09,644.14,206.09Z" fill="#fff5f5" opacity="0.78"/><path d="M1056.07,287.61c3,0,3,5.33,0,5.33S1053,287.61,1056.07,287.61Z" fill="#fff5f5" opacity="0.67"/><path d="M901,135.56c2.93,0,2.93,5.15,0,5.15S898.05,135.56,901,135.56Z" fill="#fff5f5" opacity="0.62"/><path d="M384.64,196c2.37,0,2.37,4.17,0,4.17S382.26,196,384.64,196Z" fill="#fff5f5" opacity="0.8"/><path d="M383.72,69.55c2.63,0,2.63,4.64,0,4.64S381.09,69.55,383.72,69.55Z" fill="#fff5f5" opacity="0.4"/><path d="M251.32,43.64c2.48,0,2.48,4.36,0,4.36S248.85,43.64,251.32,43.64Z" fill="#fff5f5" opacity="0.52"/><path d="M48.12,132.55c3.29,0,3.29,5.77,0,5.77S44.84,132.55,48.12,132.55Z" fill="#fff5f5" opacity="0.46"/><path d="M1115.25,194.49c3.06,0,3.06,5.39,0,5.39S1112.19,194.49,1115.25,194.49Z" fill="#fff5f5" opacity="0.62"/><path d="M278.31,314.82c2.36,0,2.36,4.15,0,4.15S276,314.82,278.31,314.82Z" fill="#fff5f5" opacity="0.78"/><path d="M534.37,186.82c2.15,0,2.15,3.77,0,3.77S532.23,186.82,534.37,186.82Z" fill="#fff5f5" opacity="0.76"/><path d="M482.6,243.19c3.14,0,3.14,5.52,0,5.52S479.47,243.19,482.6,243.19Z" fill="#fff5f5" opacity="0.71"/><path d="M970.51,50.61c2.22,0,2.22,3.88,0,3.88S968.3,50.61,970.51,50.61Z" fill="#fff5f5" opacity="0.59"/><path d="M690.38,289.09c2.82,0,2.82,4.94,0,4.94S687.57,289.09,690.38,289.09Z" fill="#fff5f5" opacity="0.71"/><path d="M946.76,285.12c2.62,0,2.62,4.62,0,4.62S944.13,285.12,946.76,285.12Z" fill="#fff5f5" opacity="0.68"/><path d="M138.23,177.84c2.63,0,2.63,4.63,0,4.63S135.6,177.84,138.23,177.84Z" fill="#fff5f5" opacity="0.65"/><path d="M125.36,21.42c2.76,0,2.76,4.87,0,4.87S122.59,21.42,125.36,21.42Z" fill="#fff5f5" opacity="0.64"/></g></g></g></svg>