<svg id="Layer_1" data-name="Layer 1" xmlns="http://www.w3.org/2000/svg" xmlns:xlink="http://www.w3.org/1999/xlink" viewBox="0 0 1201.13 850.9"><defs><linearGradient id="linear-gradient" x1="597.19" y1="639.08" x2="597.19" y2="-11.08" gradientTransform="matrix(-1, 0, 0, 1, 1197.76, 0.9)" gradientUnits="userSpaceOnUse"><stop offset="0" stop-color="#ffe3ed"/><stop offset="1" stop-color="#a8b2ff"/></linearGradient><linearGradient id="linear-gradient-2" x1="840.55" y1="851.39" x2="840.55" y2="653.4" gradientTransform="translate(-240.01)" gradientUnits="userSpaceOnUse"><stop offset="0" stop-color="#979dd1"/><stop offset="1" stop-color="#ffd1e2"/></linearGradient><linearGradient id="linear-gradient-3" x1="868.67" y1="738.2" x2="868.67" y2="638.75" gradientTransform="translate(-240.01)" gradientUnits="userSpaceOnUse"><stop offset="0" stop-color="#9397ba"/><stop offset="1" stop-color="#ffd9e7"/></linearGradient><linearGradient id="linear-gradient-4" x1="867.95" y1="851.63" x2="867.95" y2="674.73" gradientTransform="translate(-240.01)" gradientUnits="userSpaceOnUse"><stop offset="0" stop-color="#6d729e"/><stop offset="1" stop-color="#ffc9de"/></linearGradient><linearGradient id="linear-gradient-5" x1="-343.43" y1="728.41" x2="-343.43" y2="626.02" gradientTransform="translate(810.59)" gradientUnits="userSpaceOnUse"><stop offset="0" stop-color="#424878"/><stop offset="0.97" stop-color="#d495ad"/></linearGradient><linearGradient id="linear-gradient-6" x1="1132.6" y1="850.58" x2="1132.6" y2="647.7" gradientTransform="matrix(-1, 0, 0, 1, 1456.85, 0.9)" gradientUnits="userSpaceOnUse"><stop offset="0" stop-color="#4d527a"/><stop offset="1" stop-color="#e79cb8"/></linearGradient><linearGradient id="linear-gradient-7" x1="929.75" y1="849.25" x2="929.75" y2="630.98" gradientTransform="matrix(-1, 0, 0, 1, 1456.8, 0)" gradientUnits="userSpaceOnUse"><stop offset="0" stop-color="#54587a"/><stop offset="1" stop-color="#ffbad4"/></linearGradient><linearGradient id="linear-gradient-8" x1="1181.1" y1="851.96" x2="1181.1" y2="650.16" gradientTransform="matrix(-1, 0, 0, 1, 1456.85, 0.9)" gradientUnits="userSpaceOnUse"><stop offset="0" stop-color="#3f4364"/><stop offset="1" stop-color="#d18aa4"/></linearGradient><linearGradient id="linear-gradient-9" x1="1223.51" y1="722.34" x2="1223.51" y2="569.5" gradientTransform="matrix(-1, 0, 0, 1, 1456.8, 0)" gradientUnits="userSpaceOnUse"><stop offset="0" stop-color="#3f4364"/><stop offset="1" stop-color="#c97896"/></linearGradient><linearGradient id="linear-gradient-10" x1="1222.16" y1="816.86" x2="1222.16" y2="640.65" gradientTransform="matrix(-1, 0, 0, 1, 1456.85, 0.9)" gradientUnits="userSpaceOnUse"><stop offset="0" stop-color="#3f4364"/><stop offset="1" stop-color="#e097b2"/></linearGradient><linearGradient id="linear-gradient-11" x1="1205.66" y1="824.42" x2="1205.66" y2="604.18" xlink:href="#linear-gradient-9"/><linearGradient id="linear-gradient-12" x1="693.65" y1="799.14" x2="693.65" y2="579.67" gradientTransform="matrix(-1, 0, 0, 1, 1456.85, 0.9)" xlink:href="#linear-gradient-7"/><linearGradient id="linear-gradient-13" x1="901.99" y1="834.99" x2="901.99" y2="614.77" gradientTransform="matrix(-1, 0, 0, 1, 1456.85, 0.9)" xlink:href="#linear-gradient-9"/><linearGradient id="linear-gradient-14" x1="538.27" y1="650.48" x2="538.27" y2="780.24" gradientTransform="matrix(-1, 0, 0, 1, 1197.72, 0)" gradientUnits="userSpaceOnUse"><stop offset="0" stop-color="#a7a9ac"/><stop offset="1" stop-color="#808285"/></linearGradient></defs><rect width="1201.13" height="850.9" fill="url(#linear-gradient)"/><path d="M0,850l287.57-81,98.18-60.38c89.77-19.76,66.07-14,129.74-62L601,697.86l9.17-5.7,96.13,13.59c18.61,7.62,58.75,18.86,79.35,23.16l45.83,5,39.61,19.2,87.63,13.53L1201.09,850Z" transform="translate(0.04 0.9)" fill="url(#linear-gradient-2)"/><path d="M515.49,646.63v37l62.16,25.4L596.54,711,585,705c39.36,1.69,118.3,8,156.87,13.18l-35.57-12.44-96.13-13.59-9.17,5.7Z" transform="translate(0.04 0.9)" opacity="0.29" fill="url(#linear-gradient-3)"/><path d="M234.37,850,233.3,706c74.86-20.24,62.14-7.22,107.2-57.74l14.26-5.35,78.6,43.41,8.59-5.81c32.19,7.56,109.12,26.41,137.61,38.56l49.37,19.33,70.36,8.06,59.68,15,49.64-3c19.73,10.27,72.56,32.5,94.25,41.44l84.22,21.88L1022.59,850Z" transform="translate(0.04 0.9)" fill="url(#linear-gradient-4)"/><path d="M354.76,642.91v37.71L425.86,712l-6-9.61c35.8-1.44,124.1,11.15,159.74,16.71-27.95-12-106.08-31.18-137.61-38.56l-8.59,5.81Z" transform="translate(0.04 0.9)" opacity="0.05" fill="url(#linear-gradient-5)"/><polygon points="263.05 718.99 176.9 708.18 0.04 618.75 0.04 850.9 648.45 850.9 461.26 783.96 358.33 780.65 263.05 718.99" fill="url(#linear-gradient-6)"/><path d="M554.65,730.74l-28.34,16.51c-70.56-7.19-54.92-6.13-121,10.15L346.56,723l-37.63-6.95L157.67,627l-31.06,4.86L82.46,659.54l94.4,47.73L263,718.09l95.28,61.66,102.93,3.3,187.19,67H971.65l-155-42.28-96.35-13.35L603.9,743.79Z" transform="translate(0.04 0.9)" fill="url(#linear-gradient-7)"/><polygon points="424.51 801.02 206.3 769.85 51.49 664.54 0.04 686.38 0.04 850.9 551.45 850.9 424.51 801.02" fill="url(#linear-gradient-8)"/><path d="M157.67,627l151.26,89.05L189.05,665.81l12.43,19.67-38.32-18.93Z" transform="translate(0.04 0.9)" opacity="0.05" fill="url(#linear-gradient-9)"/><polygon points="206.3 769.85 51.49 664.54 99.73 727.56 108.87 719.02 202.33 786.24 239.26 790.41 225.88 782.08 417.88 800.07 206.3 769.85" opacity="0.44" fill="url(#linear-gradient-10)"/><path d="M325.43,758.49,263,718.09l-86.15-10.82,64.74,20-24.75.55C242.18,731.67,301.43,750.5,325.43,758.49Z" transform="translate(0.04 0.9)" opacity="0.13" fill="url(#linear-gradient-11)"/><polygon points="971.7 850.9 750.05 824.21 766.43 835.29 691.07 814.22 599.63 775.79 554.69 731.64 603.95 744.69 720.35 795.27 816.7 808.63 971.7 850.9" opacity="0.18" fill="url(#linear-gradient-12)"/><polygon points="648.45 850.9 466.08 800.83 475.23 798.79 461.26 783.96 648.45 850.9" opacity="0.12" fill="url(#linear-gradient-13)"/><path d="M660.14,743.37l-1.36,1.44C658.66,744.15,659.16,743.82,660.14,743.37Z" transform="translate(0.04 0.9)" fill="url(#linear-gradient-14)"/><path d="M660.14,743.37l-1.36,1.44C658.66,744.15,659.16,743.82,660.14,743.37Z" transform="translate(0.04 0.9)" opacity="0.1"/><path d="M464,95.87c-3.12,0-3.12,5.48,0,5.48S467.15,95.87,464,95.87Z" transform="translate(0.04 0.9)" fill="#fff" opacity="0.75"/><path d="M1139.45,239.85c-1.9,0-1.9,3.33,0,3.33S1141.34,239.85,1139.45,239.85Z" transform="translate(0.04 0.9)" fill="#fff" opacity="0.43"/><path d="M974.21,285c-3.34,0-3.34,5.87,0,5.87S977.55,285,974.21,285Z" transform="translate(0.04 0.9)" fill="#fff" opacity="0.62"/><path d="M217.78,276.74c-1.81,0-1.81,3.18,0,3.18S219.59,276.74,217.78,276.74Z" transform="translate(0.04 0.9)" fill="#fff" opacity="0.74"/><path d="M237.14,112.68c-2,0-2,3.59,0,3.59S239.18,112.68,237.14,112.68Z" transform="translate(0.04 0.9)" fill="#fff" opacity="0.75"/><path d="M366.27,78.29c-2.49,0-2.49,4.37,0,4.37S368.75,78.29,366.27,78.29Z" transform="translate(0.04 0.9)" fill="#fff" opacity="0.67"/><path d="M782.32,282.69c-2.49,0-2.49,4.37,0,4.37S784.81,282.69,782.32,282.69Z" transform="translate(0.04 0.9)" fill="#fff" opacity="0.67"/><path d="M485.49,413.11c-2.49,0-2.49,4.37,0,4.37S488,413.11,485.49,413.11Z" transform="translate(0.04 0.9)" fill="#fff" opacity="0.67"/><path d="M247.57,233.43c-2.58,0-2.58,4.54,0,4.54S250.15,233.43,247.57,233.43Z" transform="translate(0.04 0.9)" fill="#fff" opacity="0.65"/><path d="M357.58,206.94c-2.45,0-2.45,4.3,0,4.3S360,206.94,357.58,206.94Z" transform="translate(0.04 0.9)" fill="#fff" opacity="0.78"/><path d="M263.66,307.07c-3.47,0-3.47,6.1,0,6.1S267.13,307.07,263.66,307.07Z" transform="translate(0.04 0.9)" fill="#fff" opacity="0.47"/><path d="M190.4,398.91c-2.7,0-2.7,4.76,0,4.76S193.1,398.91,190.4,398.91Z" transform="translate(0.04 0.9)" fill="#fff" opacity="0.59"/><path d="M65.4,264.65c-3,0-3,5.19,0,5.19S68.35,264.65,65.4,264.65Z" transform="translate(0.04 0.9)" fill="#fff" opacity="0.67"/><path d="M175.4,156.81c-2.85,0-2.85,5,0,5S178.25,156.81,175.4,156.81Z" transform="translate(0.04 0.9)" fill="#fff" opacity="0.62"/><path d="M71.05,57c-2.63,0-2.63,4.63,0,4.63S73.68,57,71.05,57Z" transform="translate(0.04 0.9)" fill="#fff" opacity="0.79"/><path d="M244.72,50.85c-2.59,0-2.59,4.54,0,4.54S247.3,50.85,244.72,50.85Z" transform="translate(0.04 0.9)" fill="#fff" opacity="0.63"/><path d="M433,52.57c-2.87,0-2.87,5,0,5S435.84,52.57,433,52.57Z" transform="translate(0.04 0.9)" fill="#fff" opacity="0.42"/><path d="M567.33,54.52c-2.9,0-2.9,5.08,0,5.08S570.22,54.52,567.33,54.52Z" transform="translate(0.04 0.9)" fill="#fff" opacity="0.66"/><path d="M671.24,31.78c-3,0-3,5.22,0,5.22S674.21,31.78,671.24,31.78Z" transform="translate(0.04 0.9)" fill="#fff" opacity="0.59"/><path d="M299.09,336.73c-2.8,0-2.8,4.92,0,4.92S301.89,336.73,299.09,336.73Z" transform="translate(0.04 0.9)" fill="#fff" opacity="0.48"/><path d="M541.64,199.81c-2.31,0-2.31,4.06,0,4.06S544,199.81,541.64,199.81Z" transform="translate(0.04 0.9)" fill="#fff" opacity="0.8"/><path d="M542.29,110.06c-2.56,0-2.56,4.5,0,4.5S544.85,110.06,542.29,110.06Z" transform="translate(0.04 0.9)" fill="#fff" opacity="0.4"/><path d="M636.2,91.71c-2.41,0-2.41,4.24,0,4.24S638.61,91.71,636.2,91.71Z" transform="translate(0.04 0.9)" fill="#fff" opacity="0.52"/><path d="M780.33,154.59c-3.2,0-3.2,5.62,0,5.62S783.52,154.59,780.33,154.59Z" transform="translate(0.04 0.9)" fill="#fff" opacity="0.46"/><path d="M919.23,93.52c-2,0-2,3.58,0,3.58S921.27,93.52,919.23,93.52Z" transform="translate(0.04 0.9)" fill="#fff" opacity="0.51"/><path d="M1043.8,156.85c-3.16,0-3.16,5.54,0,5.54S1047,156.85,1043.8,156.85Z" transform="translate(0.04 0.9)" fill="#fff" opacity="0.52"/><path d="M965.54,348.68c-1.88,0-1.88,3.3,0,3.3S967.41,348.68,965.54,348.68Z" transform="translate(0.04 0.9)" fill="#fff" opacity="0.64"/><path d="M1134.06,339.89c-1.88,0-1.88,3.3,0,3.3S1135.93,339.89,1134.06,339.89Z" transform="translate(0.04 0.9)" fill="#fff" opacity="0.64"/><path d="M1073.14,235.51c-2.8,0-2.8,4.93,0,4.93S1075.94,235.51,1073.14,235.51Z" transform="translate(0.04 0.9)" fill="#fff" opacity="0.52"/><path d="M1137.7,70.18c-2.52,0-2.52,4.44,0,4.44S1140.23,70.18,1137.7,70.18Z" transform="translate(0.04 0.9)" fill="#fff" opacity="0.56"/><path d="M81.22,183.7c-3,0-3,5.24,0,5.24S84.2,183.7,81.22,183.7Z" transform="translate(0.04 0.9)" fill="#fff" opacity="0.62"/><path d="M615.53,169c-2.3,0-2.3,4,0,4S617.83,169,615.53,169Z" transform="translate(0.04 0.9)" fill="#fff" opacity="0.78"/><path d="M1029.63,52.2c-2.8,0-2.8,4.93,0,4.93S1032.43,52.2,1029.63,52.2Z" transform="translate(0.04 0.9)" fill="#fff" opacity="0.83"/><path d="M1141.94,127.14c-3.2,0-3.2,5.63,0,5.63S1145.15,127.14,1141.94,127.14Z" transform="translate(0.04 0.9)" fill="#fff" opacity="0.73"/><path d="M435.43,193.36c-2.09,0-2.09,3.67,0,3.67S437.52,193.36,435.43,193.36Z" transform="translate(0.04 0.9)" fill="#fff" opacity="0.76"/><path d="M595.59,317.3c-2.09,0-2.09,3.68,0,3.68S597.67,317.3,595.59,317.3Z" transform="translate(0.04 0.9)" fill="#fff" opacity="0.76"/><path d="M58.64,313.89c-2.47,0-2.47,4.34,0,4.34S61.1,313.89,58.64,313.89Z" transform="translate(0.04 0.9)" fill="#fff" opacity="0.69"/><path d="M234.1,353.52c-2.68,0-2.68,4.73,0,4.73S236.79,353.52,234.1,353.52Z" transform="translate(0.04 0.9)" fill="#fff" opacity="0.74"/><path d="M390.89,461.58c-2.69,0-2.69,4.73,0,4.73S393.57,461.58,390.89,461.58Z" transform="translate(0.04 0.9)" fill="#fff" opacity="0.74"/><path d="M274.36,428.56c-2.69,0-2.69,4.73,0,4.73S277.05,428.56,274.36,428.56Z" transform="translate(0.04 0.9)" fill="#fff" opacity="0.74"/><path d="M363.08,393.74c-2.69,0-2.69,4.73,0,4.73S365.77,393.74,363.08,393.74Z" transform="translate(0.04 0.9)" fill="#fff" opacity="0.74"/><path d="M164.45,450.48c-2.69,0-2.69,4.73,0,4.73S167.14,450.48,164.45,450.48Z" transform="translate(0.04 0.9)" fill="#fff" opacity="0.74"/><path d="M75.2,418.36c-2.68,0-2.68,4.73,0,4.73S77.89,418.36,75.2,418.36Z" transform="translate(0.04 0.9)" fill="#fff" opacity="0.74"/><path d="M832.36,65.52c-1.93,0-1.93,3.39,0,3.39S834.29,65.52,832.36,65.52Z" transform="translate(0.04 0.9)" fill="#fff" opacity="0.51"/><path d="M727.85,276c-1.93,0-1.93,3.4,0,3.4S729.78,276,727.85,276Z" transform="translate(0.04 0.9)" fill="#fff" opacity="0.51"/><path d="M457.34,304.4c-1.93,0-1.93,3.4,0,3.4S459.27,304.4,457.34,304.4Z" transform="translate(0.04 0.9)" fill="#fff" opacity="0.51"/><path d="M840.69,237.51c-2.72,0-2.72,4.79,0,4.79S843.42,237.51,840.69,237.51Z" transform="translate(0.04 0.9)" fill="#fff" opacity="0.81"/><path d="M472.15,233.12c-3,0-3,5.37,0,5.37S475.21,233.12,472.15,233.12Z" transform="translate(0.04 0.9)" fill="#fff" opacity="0.71"/><path d="M598.23,224.79c-3.05,0-3.05,5.37,0,5.37S601.29,224.79,598.23,224.79Z" transform="translate(0.04 0.9)" fill="#fff" opacity="0.71"/><path d="M126.08,96.71c-2.15,0-2.15,3.79,0,3.79S128.23,96.71,126.08,96.71Z" transform="translate(0.04 0.9)" fill="#fff" opacity="0.59"/><path d="M114.27,386.41c-2.64,0-2.64,4.64,0,4.64S116.9,386.41,114.27,386.41Z" transform="translate(0.04 0.9)" fill="#fff" opacity="0.83"/><path d="M324.78,265.75c-2.74,0-2.74,4.81,0,4.81S327.51,265.75,324.78,265.75Z" transform="translate(0.04 0.9)" fill="#fff" opacity="0.71"/><path d="M142.93,263c-2.56,0-2.56,4.49,0,4.49S145.49,263,142.93,263Z" transform="translate(0.04 0.9)" fill="#fff" opacity="0.68"/><path d="M1087.15,300.27c-3.28,0-3.28,5.78,0,5.78S1090.44,300.27,1087.15,300.27Z" transform="translate(0.04 0.9)" fill="#fff" opacity="0.76"/><path d="M883,336c-2.52,0-2.52,4.42,0,4.42S885.49,336,883,336Z" transform="translate(0.04 0.9)" fill="#fff" opacity="0.35"/><path d="M901.29,417.47c-2.54,0-2.54,4.48,0,4.48S903.83,417.47,901.29,417.47Z" transform="translate(0.04 0.9)" fill="#fff" opacity="0.83"/><path d="M691,379c-1.79,0-1.79,3.16,0,3.16S692.78,379,691,379Z" transform="translate(0.04 0.9)" fill="#fff" opacity="0.69"/><path d="M601.42,429.18c-1.8,0-1.8,3.16,0,3.16S603.21,429.18,601.42,429.18Z" transform="translate(0.04 0.9)" fill="#fff" opacity="0.69"/><path d="M800.57,501.62c-1.79,0-1.79,3.16,0,3.16S802.37,501.62,800.57,501.62Z" transform="translate(0.04 0.9)" fill="#fff" opacity="0.69"/><path d="M677,584.07c-1.79,0-1.79,3.16,0,3.16S678.78,584.07,677,584.07Z" transform="translate(0.04 0.9)" fill="#fff" opacity="0.69"/><path d="M677.65,443.81c-1.8,0-1.8,3.16,0,3.16S679.44,443.81,677.65,443.81Z" transform="translate(0.04 0.9)" fill="#fff" opacity="0.69"/><path d="M968.61,477.78c-1.79,0-1.79,3.16,0,3.16S970.4,477.78,968.61,477.78Z" transform="translate(0.04 0.9)" fill="#fff" opacity="0.69"/><path d="M997.57,531.42c-1.8,0-1.8,3.15,0,3.15S999.36,531.42,997.57,531.42Z" transform="translate(0.04 0.9)" fill="#fff" opacity="0.69"/><path d="M1159.64,428.16c-1.79,0-1.79,3.15,0,3.15S1161.44,428.16,1159.64,428.16Z" transform="translate(0.04 0.9)" fill="#fff" opacity="0.69"/><path d="M716.42,186.88c-2.56,0-2.56,4.5,0,4.5S719,186.88,716.42,186.88Z" transform="translate(0.04 0.9)" fill="#fff" opacity="0.65"/><path d="M725.54,75.88c-2.69,0-2.69,4.74,0,4.74S728.24,75.88,725.54,75.88Z" transform="translate(0.04 0.9)" fill="#fff" opacity="0.64"/><path d="M863.8,164.54c-3.59,0-3.59,6.31,0,6.31S867.39,164.54,863.8,164.54Z" transform="translate(0.04 0.9)" fill="#fff" opacity="0.82"/><path d="M895.76,264.09c-3,0-3,5.31,0,5.31S898.78,264.09,895.76,264.09Z" transform="translate(0.04 0.9)" fill="#fff" opacity="0.69"/><path d="M787.42,413.71c-3,0-3,5.3,0,5.3S790.44,413.71,787.42,413.71Z" transform="translate(0.04 0.9)" fill="#fff" opacity="0.69"/><path d="M699.15,481.35c-3,0-3,5.3,0,5.3S702.17,481.35,699.15,481.35Z" transform="translate(0.04 0.9)" fill="#fff" opacity="0.69"/><path d="M539.54,499.76c-3,0-3,5.3,0,5.3S542.56,499.76,539.54,499.76Z" transform="translate(0.04 0.9)" fill="#fff" opacity="0.69"/><path d="M996.11,392.89c-3,0-3,5.31,0,5.31S999.13,392.89,996.11,392.89Z" transform="translate(0.04 0.9)" fill="#fff" opacity="0.69"/><path d="M1001.4,217.54c-3,0-3,5.27,0,5.27S1004.4,217.54,1001.4,217.54Z" transform="translate(0.04 0.9)" fill="#fff" opacity="0.47"/><path d="M979.89,115.08c-2.67,0-2.67,4.69,0,4.69S982.55,115.08,979.89,115.08Z" transform="translate(0.04 0.9)" fill="#fff" opacity="0.51"/><path d="M1103.14,177.43c-2.38,0-2.38,4.18,0,4.18S1105.52,177.43,1103.14,177.43Z" transform="translate(0.04 0.9)" fill="#fff" opacity="0.74"/><path d="M950.43,170.24c-4,0-4,7.11,0,7.11S954.47,170.24,950.43,170.24Z" transform="translate(0.04 0.9)" fill="#fff" opacity="0.36"/><rect x="31.57" width="375.35" height="850.9" fill="none"/></svg>