<svg xmlns="http://www.w3.org/2000/svg" xmlns:xlink="http://www.w3.org/1999/xlink" viewBox="0 0 1213.53 856.64"><defs><linearGradient id="linear-gradient" x1="606.77" y1="671.28" x2="606.77" gradientUnits="userSpaceOnUse"><stop offset="0" stop-color="#ededed"/><stop offset="1" stop-color="#90e5ed"/></linearGradient><linearGradient id="linear-gradient-2" x1="1656.32" y1="201.56" x2="1656.32" y2="299.91" gradientTransform="translate(2263.09 861.54) rotate(180)" gradientUnits="userSpaceOnUse"><stop offset="0.01" stop-color="#efc19d"/><stop offset="0.95" stop-color="#fbf0e7"/></linearGradient><linearGradient id="linear-gradient-3" x1="1656.32" y1="146.37" x2="1656.32" y2="292.29" gradientTransform="translate(2263.09 861.54) rotate(180)" gradientUnits="userSpaceOnUse"><stop offset="0.01" stop-color="#edb991"/><stop offset="0.95" stop-color="#f6dcc8"/></linearGradient><linearGradient id="linear-gradient-4" x1="640.07" y1="787.27" x2="640.07" y2="609.56" gradientUnits="userSpaceOnUse"><stop offset="0" stop-color="#9cacc5"/><stop offset="1" stop-color="#c2c6cf"/></linearGradient><linearGradient id="linear-gradient-5" x1="409.54" y1="935.03" x2="409.54" y2="577.33" gradientUnits="userSpaceOnUse"><stop offset="0" stop-color="#73778c"/><stop offset="1" stop-color="#9cacc5"/></linearGradient><linearGradient id="linear-gradient-6" x1="768.11" y1="649.45" x2="1018.12" y2="649.45" gradientUnits="userSpaceOnUse"><stop offset="0" stop-color="#ededed"/><stop offset="1" stop-color="#f2dadc"/></linearGradient><linearGradient id="linear-gradient-7" x1="462.27" y1="631.37" x2="566.64" y2="631.37" xlink:href="#linear-gradient-6"/><linearGradient id="linear-gradient-8" x1="424.64" y1="700.68" x2="664" y2="700.68" xlink:href="#linear-gradient-6"/><linearGradient id="linear-gradient-9" x1="1015.69" y1="727.67" x2="1213.53" y2="727.67" xlink:href="#linear-gradient-6"/><linearGradient id="linear-gradient-10" x1="672.23" y1="741.6" x2="817.87" y2="741.6" xlink:href="#linear-gradient-6"/><linearGradient id="linear-gradient-11" x1="132.15" y1="672.68" x2="262.44" y2="672.68" xlink:href="#linear-gradient-6"/></defs><g style="isolation:isolate"><g id="Layer_1" data-name="Layer 1"><rect width="1213.53" height="671.28" fill="url(#linear-gradient)"/><g opacity="0.5"><polygon points="0 543.23 63.66 567.79 146.41 622.51 265.96 564.9 315.94 540.81 371.92 563.73 415.68 557.07 508.08 588.72 555.6 622.54 607.21 655.69 691.75 606.91 762.88 600.17 847.68 636.03 893.41 626.95 940.94 576.97 997.85 560.13 1098.93 582.84 1150.61 625.99 1213.53 653.12 1213.53 821.08 0 821.08 0 543.23" opacity="0.6" fill="url(#linear-gradient-2)" style="isolation:isolate"/><polygon points="0 617.72 26.82 611.62 57.64 583 105.4 576.67 150.05 559.28 228.88 582.05 305.99 633.07 335.91 652.63 384.92 658.51 490.58 692.55 549.72 646.23 592.56 630.14 642.62 599.51 722.45 614.05 821.98 672.7 953.61 641.94 1033.24 594.74 1139.21 575.48 1213.53 623.47 1213.53 856.64 0 856.64 0 617.72" fill="url(#linear-gradient-3)"/></g><polygon points="1213.53 613.91 1144.48 631.37 997.89 630.4 776.6 671.9 630.97 856.64 1213.53 856.64 1213.53 613.91" fill="#c2c6cf"/><polygon points="0 545.01 178.29 615.56 510.81 649.38 618.83 856.64 0 856.64 0 545.01" fill="#d3d9e2"/><polygon points="1109.14 856.64 1018.12 695.89 768.11 603 566.64 641.71 462.27 603 232.89 718.01 170.99 856.64 1109.14 856.64" fill="url(#linear-gradient-4)"/><polygon points="0 645.42 132.16 585.02 248.66 662.13 424.64 633.86 629.75 747.82 819.08 856.64 0 856.64 0 645.42" fill="url(#linear-gradient-5)"/><polygon points="768.11 603 805.73 649.45 811.8 633.86 842.14 645.42 871.27 672.2 1018.12 695.89 768.11 603" opacity="0.2" fill="url(#linear-gradient-6)" style="mix-blend-mode:multiply"/><polygon points="462.27 603 501.92 659.74 507.98 644.15 538.33 655.72 540.43 639 566.64 641.71 462.27 603" opacity="0.2" fill="url(#linear-gradient-7)" style="mix-blend-mode:multiply"/><polygon points="424.64 633.86 439.21 703.25 485.33 689.12 516.88 761.08 539.77 764.05 664 767.51 424.64 633.86" opacity="0.3" fill="url(#linear-gradient-8)" style="mix-blend-mode:multiply"/><polygon points="1213.53 739.23 1015.69 639 817.87 739.23 672.23 689.12 376.1 856.64 1213.53 856.64 1213.53 739.23" fill="#535172"/><polygon points="0 731.52 405.37 805.67 962.29 856.64 0 856.64 0 731.52" fill="#32324c"/><polygon points="1015.69 639 1121.28 816.34 1185.62 816.34 1169.83 747.82 1213.53 767.51 1213.53 739.23 1015.69 639" opacity="0.4" fill="url(#linear-gradient-9)" style="mix-blend-mode:multiply"/><polygon points="672.23 689.12 728.06 794.08 746.26 747.82 757.18 776.5 817.87 739.23 672.23 689.12" opacity="0.4" fill="url(#linear-gradient-10)" style="mix-blend-mode:multiply"/><polygon points="132.16 585.02 177.06 650.56 204.37 731.52 262.44 760.35 212.25 659.56 248.66 662.13 132.16 585.02" opacity="0.3" fill="url(#linear-gradient-11)" style="mix-blend-mode:multiply"/></g></g></svg>