<svg xmlns="http://www.w3.org/2000/svg" id="Icons" height="512" viewBox="0 0 60 60" width="512"><path d="m26 50c.511 0 1.013-.016 1.5-.047a16.816 16.816 0 0 1 .09-14.093 9.981 9.981 0 0 1 -11.164-12.735l-12.385-6.794a23.987 23.987 0 0 0 21.959 33.669z" fill="#ffffff"/><path d="m26 34a7.862 7.862 0 0 0 2.973-.586 17.142 17.142 0 0 1 4.441-4.441 7.862 7.862 0 0 0 .586-2.973 8 8 0 1 0 -8 8zm0-13a5 5 0 1 1 -5 5 5.006 5.006 0 0 1 5-5z" fill="#ffffff"/><path d="m43 26a16.874 16.874 0 0 1 6.953 1.5c.031-.49.047-.992.047-1.5a23.987 23.987 0 0 0 -33.669-21.959l6.794 12.385a9.944 9.944 0 0 1 12.735 11.167 16.868 16.868 0 0 1 7.14-1.593z" fill="#ffffff"/><path d="m17.2 21.266a10.074 10.074 0 0 1 4.066-4.066l-6.733-12.278a24.178 24.178 0 0 0 -9.611 9.611z" fill="#ffffff"/><path d="m43 28a15 15 0 1 0 15 15 15.017 15.017 0 0 0 -15-15zm6.707 20.293a1 1 0 1 1 -1.414 1.414l-5.293-5.293-5.293 5.293a1 1 0 0 1 -1.414-1.414l5.293-5.293-5.293-5.293a1 1 0 0 1 1.414-1.414l5.293 5.293 5.293-5.293a1 1 0 0 1 1.414 1.414l-5.293 5.293z" fill="#ffffff"/></svg>