<svg width="20" height="20" viewBox="0 0 20 20" fill="none" xmlns="http://www.w3.org/2000/svg">
<path d="M10.0001 13.3337C9.82924 13.3337 9.66591 13.2637 9.54841 13.1403L5.17341 8.55699C4.79424 8.16033 5.07591 7.50033 5.62508 7.50033H7.91674V2.70866C7.91674 2.13449 8.38424 1.66699 8.95841 1.66699H11.0417C11.6159 1.66699 12.0834 2.13449 12.0834 2.70866V7.50033H14.3751C14.9242 7.50033 15.2059 8.16033 14.8267 8.55699L10.4517 13.1403C10.3342 13.2637 10.1709 13.3337 10.0001 13.3337Z" fill="#A8A8A8"/>
<path d="M18.5417 18.3333H1.45833C0.654167 18.3333 0 17.6792 0 16.875V16.4583C0 15.6542 0.654167 15 1.45833 15H18.5417C19.3458 15 20 15.6542 20 16.4583V16.875C20 17.6792 19.3458 18.3333 18.5417 18.3333Z" fill="#A8A8A8"/>
</svg>
