<svg width="17" height="24" viewBox="0 0 17 24" fill="none" xmlns="http://www.w3.org/2000/svg">
<path d="M1.70012 0.799805C1.38186 0.799805 1.07664 0.926233 0.851594 1.15128C0.62655 1.37632 0.500122 1.68154 0.500122 1.9998V21.9998C0.500122 22.6622 1.03772 23.1998 1.70012 23.1998H4.10012C4.41838 23.1998 4.72361 23.0734 4.94865 22.8483C5.17369 22.6233 5.30012 22.3181 5.30012 21.9998V1.9998C5.30012 1.68154 5.17369 1.37632 4.94865 1.15128C4.72361 0.926233 4.41838 0.799805 4.10012 0.799805H1.70012ZM12.9001 0.799805C12.5819 0.799805 12.2766 0.926233 12.0516 1.15128C11.8266 1.37632 11.7001 1.68154 11.7001 1.9998V21.9998C11.7001 22.6622 12.2377 23.1998 12.9001 23.1998H15.3001C15.6184 23.1998 15.9236 23.0734 16.1487 22.8483C16.3737 22.6233 16.5001 22.3181 16.5001 21.9998V1.9998C16.5001 1.68154 16.3737 1.37632 16.1487 1.15128C15.9236 0.926233 15.6184 0.799805 15.3001 0.799805H12.9001Z" fill="#F1F1F1"/>
</svg>
