<svg width="18" height="12" viewBox="0 0 18 12" fill="none" xmlns="http://www.w3.org/2000/svg">
<path d="M12.3105 1.87491H13.875C16.1494 1.87491 18 3.72554 18 5.99991C18 8.27429 16.1494 10.1249 13.875 10.1249H10.5C10.086 10.1249 9.75 9.78892 9.75 9.37492C9.75 8.96092 10.086 8.62492 10.5 8.62492H13.875C15.3221 8.62492 16.5 7.44704 16.5 5.99991C16.5 4.55241 15.3221 3.37491 13.875 3.37491H12.3105L12.9053 3.96966C13.1981 4.26254 13.1981 4.73729 12.9053 5.03016C12.7586 5.17679 12.567 5.24991 12.375 5.24991C12.183 5.24991 11.9914 5.17679 11.8447 5.03016L9.96975 3.15516C9.67687 2.86228 9.67687 2.38753 9.96975 2.09466L11.8447 0.219657C12.1376 -0.0732189 12.6124 -0.0732189 12.9053 0.219657C13.1981 0.512532 13.1981 0.987282 12.9053 1.28016L12.3105 1.87491Z" fill="white"/>
<path d="M7.5 3.37488H4.125C2.67788 3.37488 1.5 4.55238 1.5 5.99988C1.5 7.447 2.67788 8.62488 4.125 8.62488H5.6895L5.09475 8.03013C4.80188 7.73725 4.80188 7.2625 5.09475 6.96963C5.38763 6.67675 5.86237 6.67675 6.15525 6.96963L8.03025 8.84463C8.32312 9.1375 8.32312 9.61225 8.03025 9.90513L6.15525 11.7801C6.00863 11.9268 5.817 11.9999 5.625 11.9999C5.433 11.9999 5.24137 11.9268 5.09475 11.7801C4.80188 11.4873 4.80188 11.0125 5.09475 10.7196L5.6895 10.1249H4.125C1.85063 10.1249 0 8.27425 0 5.99988C0 3.7255 1.85063 1.87488 4.125 1.87488H7.5C7.914 1.87488 8.25 2.21088 8.25 2.62488C8.25 3.03888 7.914 3.37488 7.5 3.37488Z" fill="white"/>
</svg>
