<svg width="18" height="14" viewBox="0 0 18 14" fill="none" xmlns="http://www.w3.org/2000/svg">
<path d="M15.9053 8.34466C15.6124 8.05178 15.1376 8.05178 14.8447 8.34466C14.5519 8.63753 14.5519 9.11228 14.8447 9.40516L15.4395 9.99991H13.4419C12.7545 9.99991 12.1144 9.69203 11.6846 9.15541L9.96038 6.99991L11.6846 4.84441C12.1144 4.30778 12.7545 3.99991 13.4419 3.99991H15.4395L14.8447 4.59466C14.5519 4.88753 14.5519 5.36228 14.8447 5.65516C14.9914 5.80178 15.183 5.87491 15.375 5.87491C15.567 5.87491 15.7586 5.80178 15.9053 5.65516L17.7803 3.78016C18.0731 3.48728 18.0731 3.01253 17.7803 2.71966L15.9053 0.844656C15.6124 0.551781 15.1376 0.551781 14.8447 0.844656C14.5519 1.13753 14.5519 1.61228 14.8447 1.90516L15.4395 2.49991H13.4419C12.2963 2.49991 11.2294 3.01291 10.5135 3.90728L9 5.79916L7.4865 3.90691C6.771 3.01291 5.70375 2.49991 4.55813 2.49991H0.75C0.336 2.49991 0 2.83591 0 3.24991C0 3.66391 0.336 3.99991 0.75 3.99991H4.55813C5.2455 3.99991 5.88562 4.30778 6.31537 4.84441L8.03962 6.99991L6.31537 9.15541C5.88562 9.69203 5.2455 9.99991 4.55813 9.99991H0.75C0.336 9.99991 0 10.3359 0 10.7499C0 11.1639 0.336 11.4999 0.75 11.4999H4.55813C5.70375 11.4999 6.77063 10.9869 7.4865 10.0925L9 8.20066L10.5135 10.0929C11.229 10.9869 12.2963 11.4999 13.4419 11.4999H15.4395L14.8447 12.0947C14.5519 12.3875 14.5519 12.8623 14.8447 13.1552C14.9914 13.3018 15.183 13.3749 15.375 13.3749C15.567 13.3749 15.7586 13.3018 15.9053 13.1552L17.7803 11.2802C18.0731 10.9873 18.0731 10.5125 17.7803 10.2197L15.9053 8.34466Z" fill="white"/>
</svg>
