<svg width="30" height="18" viewBox="0 0 30 18" fill="none" xmlns="http://www.w3.org/2000/svg">
<path d="M26.2391 17.2877C26.6026 17.5121 27.0195 17.6354 27.4467 17.6449C27.8738 17.6544 28.2957 17.5497 28.6689 17.3416C29.042 17.1335 29.3528 16.8295 29.5692 16.4612C29.7857 16.0928 29.8998 15.6733 29.8999 15.2461V2.75006C29.9001 2.32268 29.7861 1.903 29.5699 1.53439C29.3536 1.16578 29.0428 0.861616 28.6696 0.653328C28.2964 0.445038 27.8743 0.340183 27.4471 0.349594C27.0198 0.359005 26.6028 0.482342 26.2391 0.70686L16.1223 6.95486C15.8743 7.10846 15.6663 7.29566 15.4999 7.50526V2.74846C15.4998 2.32121 15.3857 1.90174 15.1692 1.53336C14.9528 1.16497 14.642 0.861036 14.2689 0.652939C13.8957 0.444839 13.4738 0.340124 13.0467 0.349604C12.6195 0.359081 12.2026 0.482412 11.8391 0.70686L1.7223 6.95486C1.37393 7.16984 1.08634 7.47036 0.886879 7.82785C0.687414 8.18533 0.582701 8.58789 0.582701 8.99726C0.582701 9.40663 0.687414 9.80919 0.886879 10.1667C1.08634 10.5242 1.37393 10.8247 1.7223 11.0397L11.8391 17.2861C12.2025 17.5104 12.6193 17.6338 13.0463 17.6433C13.4733 17.6529 13.8951 17.5483 14.2682 17.3404C14.6413 17.1325 14.9521 16.8288 15.1686 16.4606C15.3852 16.0924 15.4995 15.6732 15.4999 15.2461V10.4893C15.6739 10.7074 15.8845 10.8936 16.1223 11.0397L26.2391 17.2861V17.2877Z" fill="#F1F1F1"/>
</svg>
