<svg width="30" height="18" viewBox="0 0 30 18" fill="none" xmlns="http://www.w3.org/2000/svg">
<path d="M3.76078 0.710387C3.39723 0.48594 2.98036 0.362609 2.55322 0.35313C2.12608 0.343651 1.70415 0.448367 1.33101 0.656466C0.95787 0.864564 0.647044 1.1685 0.430633 1.53688C0.214223 1.90527 0.100074 2.32474 0.0999758 2.75199V15.248C0.0997891 15.6754 0.213731 16.095 0.430026 16.4637C0.64632 16.8323 0.957122 17.1364 1.33031 17.3447C1.7035 17.553 2.12555 17.6579 2.55282 17.6485C2.9801 17.639 3.39712 17.5157 3.76078 17.2912L13.8776 11.0432C14.1256 10.8896 14.3336 10.7024 14.5 10.4928V15.2496C14.5001 15.6768 14.6142 16.0963 14.8306 16.4647C15.047 16.8331 15.3579 17.137 15.731 17.3451C16.1042 17.5532 16.5261 17.6579 16.9532 17.6484C17.3804 17.639 17.7972 17.5156 18.1608 17.2912L28.2776 11.0432C28.6259 10.8282 28.9135 10.5277 29.113 10.1702C29.3125 9.81272 29.4172 9.41015 29.4172 9.00079C29.4172 8.59142 29.3125 8.18886 29.113 7.83138C28.9135 7.47389 28.6259 7.17337 28.2776 6.95839L18.1608 0.711988C17.7973 0.487612 17.3806 0.364286 16.9536 0.354738C16.5266 0.345191 16.1048 0.449768 15.7317 0.657676C15.3586 0.865583 15.0478 1.16929 14.8312 1.53745C14.6147 1.9056 14.5004 2.32488 14.5 2.75199V7.50879C14.3259 7.29067 14.1153 7.10443 13.8776 6.95839L3.76078 0.711988V0.710387Z" fill="#F1F1F1"/>
</svg>
